<?xml version="1.0" standalone="no"?>
<!DOCTYPE svg PUBLIC "-//W3C//DTD SVG 20010904//EN"
 "http://www.w3.org/TR/2001/REC-SVG-20010904/DTD/svg10.dtd">
<svg version="1.0" xmlns="http://www.w3.org/2000/svg"
 width="825.000000pt" height="857.000000pt" viewBox="0 0 825.000000 857.000000"
 preserveAspectRatio="xMidYMid meet">

<g transform="translate(0.000000,857.000000) scale(0.100000,-0.100000)"
fill="#000000" stroke="none">
<path d="M241 8352 c-19 -9 -44 -30 -55 -45 -21 -28 -21 -39 -24 -668 -3 -683
-4 -658 45 -714 40 -45 41 -45 702 -45 l628 0 34 23 c18 12 44 38 56 56 l23
34 0 628 c0 669 0 663 -49 704 -55 46 -36 44 -696 45 -580 0 -633 -1 -664 -18z
m1171 -219 l25 -28 2 -476 2 -476 -28 -27 -28 -27 -485 0 c-484 0 -485 0 -507
21 l-23 22 0 485 0 484 25 24 24 25 484 0 483 0 26 -27z"/>
<path d="M609 7929 c-18 -15 -19 -36 -20 -290 0 -151 0 -281 0 -290 2 -34 45
-39 321 -39 257 0 271 1 290 20 19 19 20 33 20 290 0 300 -3 320 -54 320 -17
0 -145 1 -285 3 -222 2 -256 0 -272 -14z"/>
<path d="M6609 8347 c-18 -12 -44 -38 -56 -56 l-23 -34 0 -632 0 -632 23 -34
c12 -18 38 -44 56 -56 l34 -23 628 0 c661 0 662 0 702 45 49 56 48 31 45 714
-3 629 -3 640 -24 668 -48 65 -23 63 -720 63 l-631 0 -34 -23z m1176 -212 l25
-24 0 -484 0 -484 -23 -21 c-23 -21 -27 -22 -508 -24 l-486 -3 -24 25 -24 25
2 484 c2 484 2 484 24 508 l22 23 484 0 484 0 24 -25z"/>
<path d="M6991 7940 c-27 -18 -31 -60 -31 -319 0 -258 1 -272 20 -291 19 -19
33 -20 290 -20 276 0 320 5 320 39 0 9 0 139 0 289 1 228 -2 275 -14 288 -13
12 -63 15 -297 17 -154 1 -284 0 -288 -3z"/>
<path d="M1912 8318 c-7 -7 -12 -39 -12 -73 0 -34 5 -66 12 -73 7 -7 39 -12
73 -12 34 0 66 5 73 12 7 7 12 39 12 73 0 34 -5 66 -12 73 -7 7 -39 12 -73 12
-34 0 -66 -5 -73 -12z"/>
<path d="M2130 8315 c-13 -16 -18 -124 -6 -143 10 -16 128 -16 144 0 7 7 12
39 12 73 0 34 -5 66 -12 73 -18 18 -123 15 -138 -3z"/>
<path d="M2552 8318 c-16 -16 -16 -130 0 -146 7 -7 39 -12 73 -12 34 0 66 5
73 12 7 7 12 39 12 73 0 34 -5 66 -12 73 -7 7 -39 12 -73 12 -34 0 -66 -5 -73
-12z"/>
<path d="M2978 8316 c-21 -16 -26 -124 -6 -144 7 -7 39 -12 73 -12 34 0 66 5
73 12 7 7 12 39 12 73 0 34 -5 66 -12 73 -16 16 -119 15 -140 -2z"/>
<path d="M3402 8318 c-16 -16 -16 -130 0 -146 7 -7 39 -12 73 -12 34 0 66 5
73 12 7 7 12 39 12 73 0 34 -5 66 -12 73 -7 7 -39 12 -73 12 -34 0 -66 -5 -73
-12z"/>
<path d="M3828 8316 c-21 -16 -26 -124 -6 -144 7 -7 39 -12 73 -12 34 0 66 5
73 12 7 7 12 39 12 73 0 34 -5 66 -12 73 -16 16 -119 15 -140 -2z"/>
<path d="M4252 8318 c-16 -16 -16 -130 0 -146 7 -7 39 -12 73 -12 34 0 66 5
73 12 7 7 12 39 12 73 0 34 -5 66 -12 73 -7 7 -39 12 -73 12 -34 0 -66 -5 -73
-12z"/>
<path d="M4462 8318 c-16 -16 -16 -130 0 -146 7 -7 39 -12 73 -12 34 0 66 5
73 12 7 7 12 39 12 73 0 34 -5 66 -12 73 -7 7 -39 12 -73 12 -34 0 -66 -5 -73
-12z"/>
<path d="M4892 8318 c-16 -16 -16 -130 0 -146 7 -7 39 -12 73 -12 34 0 66 5
73 12 20 20 15 128 -5 144 -22 17 -125 18 -141 2z"/>
<path d="M5102 8318 c-16 -16 -16 -130 0 -146 7 -7 39 -12 73 -12 34 0 66 5
73 12 7 7 12 39 12 73 0 34 -5 66 -12 73 -7 7 -39 12 -73 12 -34 0 -66 -5 -73
-12z"/>
<path d="M5526 8314 c-19 -19 -22 -124 -4 -142 7 -7 39 -12 73 -12 34 0 66 5
73 12 7 7 12 39 12 73 0 34 -5 66 -12 73 -18 18 -123 15 -142 -4z"/>
<path d="M5952 8318 c-7 -7 -12 -39 -12 -73 0 -34 5 -66 12 -73 7 -7 39 -12
73 -12 34 0 66 5 73 12 7 7 12 39 12 73 0 34 -5 66 -12 73 -7 7 -39 12 -73 12
-34 0 -66 -5 -73 -12z"/>
<path d="M6162 8318 c-7 -7 -12 -39 -12 -73 0 -34 5 -66 12 -73 7 -7 39 -12
73 -12 34 0 66 5 73 12 7 7 12 39 12 73 0 34 -5 66 -12 73 -7 7 -39 12 -73 12
-34 0 -66 -5 -73 -12z"/>
<path d="M1919 8102 c-15 -10 -19 -25 -19 -71 0 -35 5 -63 13 -69 19 -16 123
-18 141 -3 18 15 22 116 6 141 -12 19 -114 21 -141 2z"/>
<path d="M2124 8095 c-19 -27 -18 -119 1 -135 19 -16 120 -16 140 0 17 14 21
115 6 139 -7 10 -29 15 -71 15 -51 1 -65 -3 -76 -19z"/>
<path d="M2375 8112 c-39 -5 -45 -16 -45 -82 1 -76 12 -88 82 -85 76 2 88 14
88 86 0 80 -21 94 -125 81z"/>
<path d="M2830 8113 c-30 -3 -60 -9 -67 -15 -20 -17 -17 -122 5 -140 26 -22
109 -24 133 -2 30 27 22 170 -9 162 -4 -1 -32 -3 -62 -5z"/>
<path d="M4043 8102 c-17 -17 -17 -122 0 -142 18 -22 102 -26 132 -6 22 14 25
24 25 75 0 40 -5 63 -15 71 -21 17 -125 18 -142 2z"/>
<path d="M4250 8099 c-14 -25 -12 -121 3 -139 16 -20 117 -20 140 -1 12 10 17
29 17 70 0 79 -7 85 -85 87 -54 1 -68 -2 -75 -17z"/>
<path d="M5099 8098 c-13 -24 -10 -120 4 -138 16 -20 117 -20 140 -1 23 18 24
123 2 141 -8 7 -42 13 -76 14 -48 1 -63 -3 -70 -16z"/>
<path d="M5314 8099 c-20 -22 -19 -122 2 -140 9 -7 38 -15 66 -17 70 -5 88 13
88 88 0 34 -5 62 -12 68 -7 5 -39 12 -71 14 -44 2 -62 -1 -73 -13z"/>
<path d="M5530 8103 c-16 -11 -20 -25 -20 -72 0 -72 10 -81 87 -85 44 -2 61 1
70 13 14 19 17 119 3 141 -12 20 -112 22 -140 3z"/>
<path d="M6164 8099 c-21 -23 -19 -122 4 -141 21 -18 114 -17 137 2 17 14 21
115 5 140 -13 21 -126 21 -146 -1z"/>
<path d="M1912 7888 c-7 -7 -12 -39 -12 -73 0 -34 5 -66 12 -73 7 -7 39 -12
73 -12 34 0 66 5 73 12 7 7 12 39 12 73 0 34 -5 66 -12 73 -7 7 -39 12 -73 12
-34 0 -66 -5 -73 -12z"/>
<path d="M2121 7881 c-16 -28 -11 -113 7 -133 18 -21 121 -25 140 -6 7 7 12
39 12 73 0 34 -5 66 -12 73 -7 7 -39 12 -75 12 -51 0 -64 -3 -72 -19z"/>
<path d="M3192 7888 c-16 -16 -16 -130 0 -146 18 -18 123 -15 142 4 19 19 22
124 4 142 -7 7 -39 12 -73 12 -34 0 -66 -5 -73 -12z"/>
<path d="M3612 7888 c-16 -16 -16 -130 0 -146 7 -7 39 -12 73 -12 34 0 66 5
73 12 7 7 12 39 12 73 0 34 -5 66 -12 73 -7 7 -39 12 -73 12 -34 0 -66 -5 -73
-12z"/>
<path d="M4252 7888 c-16 -16 -16 -130 0 -146 7 -7 39 -12 73 -12 34 0 66 5
73 12 7 7 12 39 12 73 0 34 -5 66 -12 73 -7 7 -39 12 -73 12 -34 0 -66 -5 -73
-12z"/>
<path d="M4672 7888 c-18 -18 -15 -123 4 -142 19 -19 124 -22 142 -4 7 7 12
39 12 73 0 34 -5 66 -12 73 -7 7 -39 12 -73 12 -34 0 -66 -5 -73 -12z"/>
<path d="M5102 7888 c-16 -16 -16 -130 0 -146 7 -7 39 -12 73 -12 34 0 66 5
73 12 7 7 12 39 12 73 0 34 -5 66 -12 73 -7 7 -39 12 -73 12 -34 0 -66 -5 -73
-12z"/>
<path d="M5522 7888 c-18 -18 -15 -123 4 -142 19 -19 124 -22 142 -4 7 7 12
39 12 73 0 34 -5 66 -12 73 -7 7 -39 12 -73 12 -34 0 -66 -5 -73 -12z"/>
<path d="M5952 7888 c-7 -7 -12 -39 -12 -73 0 -34 5 -66 12 -73 7 -7 39 -12
73 -12 34 0 66 5 73 12 7 7 12 39 12 73 0 34 -5 66 -12 73 -7 7 -39 12 -73 12
-34 0 -66 -5 -73 -12z"/>
<path d="M6162 7888 c-7 -7 -12 -39 -12 -73 0 -34 5 -66 12 -73 7 -7 39 -12
73 -12 34 0 66 5 73 12 7 7 12 39 12 73 0 34 -5 66 -12 73 -7 7 -39 12 -73 12
-34 0 -66 -5 -73 -12z"/>
<path d="M2342 7678 c-7 -7 -12 -39 -12 -73 0 -34 5 -66 12 -73 7 -7 39 -12
73 -12 34 0 66 5 73 12 7 7 12 39 12 73 0 34 -5 66 -12 73 -7 7 -39 12 -73 12
-34 0 -66 -5 -73 -12z"/>
<path d="M3192 7678 c-16 -16 -16 -130 0 -146 7 -7 39 -12 73 -12 34 0 66 5
73 12 7 7 12 39 12 75 0 51 -3 64 -19 73 -27 14 -124 13 -139 -2z"/>
<path d="M3828 7676 c-14 -10 -18 -28 -18 -71 0 -43 4 -61 18 -71 21 -17 124
-18 140 -2 7 7 12 39 12 73 0 34 -5 66 -12 73 -16 16 -119 15 -140 -2z"/>
<path d="M4042 7678 c-16 -16 -16 -130 0 -146 16 -16 119 -15 141 2 13 10 17
28 17 71 0 43 -4 61 -17 71 -22 17 -125 18 -141 2z"/>
<path d="M5102 7678 c-16 -16 -16 -130 0 -146 7 -7 39 -12 73 -12 34 0 66 5
73 12 7 7 12 39 12 73 0 34 -5 66 -12 73 -7 7 -39 12 -73 12 -34 0 -66 -5 -73
-12z"/>
<path d="M5522 7678 c-7 -7 -12 -39 -12 -73 0 -34 5 -66 12 -73 7 -7 39 -12
73 -12 34 0 66 5 73 12 7 7 12 39 12 73 0 34 -5 66 -12 73 -7 7 -39 12 -73 12
-34 0 -66 -5 -73 -12z"/>
<path d="M5742 7678 c-7 -7 -12 -39 -12 -73 0 -34 5 -66 12 -73 15 -15 112
-16 139 -2 27 15 28 126 2 146 -22 17 -125 18 -141 2z"/>
<path d="M1912 7468 c-7 -7 -12 -39 -12 -73 0 -34 5 -66 12 -73 7 -7 39 -12
73 -12 34 0 66 5 73 12 7 7 12 39 12 73 0 34 -5 66 -12 73 -7 7 -39 12 -73 12
-34 0 -66 -5 -73 -12z"/>
<path d="M2128 7463 c-9 -11 -16 -41 -17 -75 -2 -48 1 -58 18 -67 27 -15 124
-14 139 1 7 7 12 39 12 73 0 34 -5 66 -12 73 -19 19 -122 15 -140 -5z"/>
<path d="M2342 7468 c-7 -7 -12 -39 -12 -73 0 -34 5 -66 12 -73 7 -7 39 -12
73 -12 34 0 66 5 73 12 7 7 12 39 12 73 0 34 -5 66 -12 73 -7 7 -39 12 -73 12
-34 0 -66 -5 -73 -12z"/>
<path d="M2552 7468 c-16 -16 -16 -130 0 -146 7 -7 39 -12 73 -12 34 0 66 5
73 12 7 7 12 39 12 73 0 34 -5 66 -12 73 -7 7 -39 12 -73 12 -34 0 -66 -5 -73
-12z"/>
<path d="M2978 7466 c-21 -16 -26 -124 -6 -144 7 -7 39 -12 73 -12 34 0 66 5
73 12 7 7 12 39 12 73 0 34 -5 66 -12 73 -16 16 -119 15 -140 -2z"/>
<path d="M3192 7468 c-16 -16 -16 -130 0 -146 15 -15 112 -16 139 -2 16 9 19
22 19 75 0 53 -3 66 -19 75 -27 14 -124 13 -139 -2z"/>
<path d="M3402 7468 c-16 -16 -16 -130 0 -146 7 -7 39 -12 73 -12 34 0 66 5
73 12 7 7 12 39 12 73 0 34 -5 66 -12 73 -7 7 -39 12 -73 12 -34 0 -66 -5 -73
-12z"/>
<path d="M4252 7468 c-16 -16 -16 -130 0 -146 7 -7 39 -12 73 -12 34 0 66 5
73 12 7 7 12 39 12 73 0 34 -5 66 -12 73 -7 7 -39 12 -73 12 -34 0 -66 -5 -73
-12z"/>
<path d="M4678 7469 c-14 -8 -18 -24 -18 -72 0 -36 5 -68 12 -75 7 -7 39 -12
73 -12 34 0 66 5 73 12 7 7 12 39 12 73 0 34 -5 66 -12 73 -15 15 -116 15
-140 1z"/>
<path d="M4892 7468 c-16 -16 -16 -130 0 -146 7 -7 39 -12 73 -12 34 0 66 5
73 12 20 20 15 128 -5 144 -22 17 -125 18 -141 2z"/>
<path d="M5102 7468 c-16 -16 -16 -130 0 -146 7 -7 39 -12 73 -12 34 0 66 5
73 12 7 7 12 39 12 73 0 34 -5 66 -12 73 -7 7 -39 12 -73 12 -34 0 -66 -5 -73
-12z"/>
<path d="M5526 7464 c-19 -19 -22 -124 -4 -142 7 -7 39 -12 73 -12 34 0 66 5
73 12 7 7 12 39 12 73 0 34 -5 66 -12 73 -18 18 -123 15 -142 -4z"/>
<path d="M5742 7468 c-7 -7 -12 -39 -12 -73 0 -34 5 -66 12 -73 7 -7 39 -12
73 -12 34 0 66 5 73 12 20 20 15 128 -5 144 -22 17 -125 18 -141 2z"/>
<path d="M6162 7468 c-7 -7 -12 -39 -12 -73 0 -34 5 -66 12 -73 7 -7 39 -12
73 -12 34 0 66 5 73 12 7 7 12 39 12 73 0 34 -5 66 -12 73 -7 7 -39 12 -73 12
-34 0 -66 -5 -73 -12z"/>
<path d="M2340 7249 c-6 -10 -10 -43 -10 -73 0 -68 20 -85 92 -81 66 3 78 16
78 85 0 72 -12 83 -91 86 -48 1 -62 -2 -69 -17z"/>
<path d="M2976 7251 c-22 -24 -22 -124 0 -142 23 -19 126 -18 141 1 18 22 16
125 -2 144 -22 22 -118 20 -139 -3z"/>
<path d="M3191 7251 c-16 -28 -14 -126 2 -140 20 -16 122 -18 141 -2 11 10 16
30 16 71 0 72 -15 86 -92 89 -48 2 -58 -1 -67 -18z"/>
<path d="M4889 7249 c-16 -30 -11 -125 7 -140 24 -19 115 -20 137 -1 21 18 24
123 4 140 -6 6 -41 12 -75 14 -52 3 -65 1 -73 -13z"/>
<path d="M5101 7248 c-15 -24 -14 -123 2 -136 20 -17 121 -19 140 -3 23 19 24
123 1 142 -8 7 -41 13 -74 13 -45 1 -61 -3 -69 -16z"/>
<path d="M5565 7262 c-46 -6 -55 -19 -55 -82 0 -70 12 -83 83 -85 71 -3 87 13
87 84 0 31 -4 62 -9 70 -9 14 -50 19 -106 13z"/>
<path d="M5742 7258 c-14 -14 -16 -126 -3 -147 12 -18 124 -20 145 -2 11 10
16 31 16 72 0 48 -4 60 -22 73 -27 19 -119 21 -136 4z"/>
<path d="M2762 7248 c-18 -18 -15 -123 3 -138 22 -19 127 -19 142 0 16 19 17
122 1 138 -7 7 -39 12 -73 12 -34 0 -66 -5 -73 -12z"/>
<path d="M1912 7038 c-7 -7 -12 -39 -12 -73 0 -34 5 -66 12 -73 7 -7 39 -12
73 -12 34 0 66 5 73 12 7 7 12 39 12 73 0 34 -5 66 -12 73 -7 7 -39 12 -73 12
-34 0 -66 -5 -73 -12z"/>
<path d="M2342 7038 c-7 -7 -12 -39 -12 -73 0 -34 5 -66 12 -73 7 -7 39 -12
73 -12 34 0 66 5 73 12 7 7 12 39 12 73 0 34 -5 66 -12 73 -7 7 -39 12 -73 12
-34 0 -66 -5 -73 -12z"/>
<path d="M2762 7038 c-16 -16 -16 -130 0 -146 7 -7 39 -12 73 -12 34 0 66 5
73 12 7 7 12 39 12 73 0 34 -5 66 -12 73 -7 7 -39 12 -73 12 -34 0 -66 -5 -73
-12z"/>
<path d="M3192 7038 c-16 -16 -16 -130 0 -146 15 -15 112 -16 139 -2 16 9 19
22 19 73 0 36 -5 68 -12 75 -7 7 -39 12 -73 12 -34 0 -66 -5 -73 -12z"/>
<path d="M3612 7038 c-16 -16 -16 -130 0 -146 7 -7 39 -12 73 -12 34 0 66 5
73 12 7 7 12 39 12 73 0 34 -5 66 -12 73 -7 7 -39 12 -73 12 -34 0 -66 -5 -73
-12z"/>
<path d="M4042 7038 c-16 -16 -16 -130 0 -146 17 -17 126 -15 144 2 9 10 14
36 14 75 0 49 -3 62 -19 71 -27 14 -124 13 -139 -2z"/>
<path d="M4462 7038 c-16 -16 -16 -130 0 -146 7 -7 39 -12 73 -12 34 0 66 5
73 12 7 7 12 39 12 73 0 34 -5 66 -12 73 -7 7 -39 12 -73 12 -34 0 -66 -5 -73
-12z"/>
<path d="M4892 7038 c-16 -16 -16 -130 0 -146 20 -20 122 -15 141 6 20 22 23
122 5 140 -7 7 -39 12 -73 12 -34 0 -66 -5 -73 -12z"/>
<path d="M5312 7038 c-7 -7 -12 -39 -12 -73 0 -34 5 -66 12 -73 7 -7 39 -12
73 -12 34 0 66 5 73 12 7 7 12 39 12 73 0 34 -5 66 -12 73 -7 7 -39 12 -73 12
-34 0 -66 -5 -73 -12z"/>
<path d="M5742 7038 c-7 -7 -12 -39 -12 -73 0 -34 5 -66 12 -73 17 -17 126
-15 144 2 17 18 19 127 2 144 -7 7 -39 12 -73 12 -34 0 -66 -5 -73 -12z"/>
<path d="M6162 7038 c-7 -7 -12 -39 -12 -73 0 -34 5 -66 12 -73 7 -7 39 -12
73 -12 34 0 66 5 73 12 7 7 12 39 12 73 0 34 -5 66 -12 73 -7 7 -39 12 -73 12
-34 0 -66 -5 -73 -12z"/>
<path d="M2552 6828 c-16 -16 -16 -130 0 -146 7 -7 39 -12 73 -12 34 0 66 5
73 12 7 7 12 39 12 73 0 34 -5 66 -12 73 -7 7 -39 12 -73 12 -34 0 -66 -5 -73
-12z"/>
<path d="M3402 6828 c-16 -16 -16 -130 0 -146 7 -7 39 -12 73 -12 34 0 66 5
73 12 7 7 12 39 12 73 0 34 -5 66 -12 73 -7 7 -39 12 -73 12 -34 0 -66 -5 -73
-12z"/>
<path d="M3612 6828 c-16 -16 -16 -130 0 -146 7 -7 39 -12 73 -12 34 0 66 5
73 12 7 7 12 39 12 73 0 34 -5 66 -12 73 -7 7 -39 12 -73 12 -34 0 -66 -5 -73
-12z"/>
<path d="M3828 6826 c-14 -10 -18 -28 -18 -71 0 -43 4 -61 18 -71 21 -17 124
-18 140 -2 7 7 12 39 12 73 0 34 -5 66 -12 73 -16 16 -119 15 -140 -2z"/>
<path d="M4042 6828 c-16 -16 -16 -130 0 -146 15 -15 112 -16 139 -2 27 15 28
126 2 146 -22 17 -125 18 -141 2z"/>
<path d="M4252 6828 c-16 -16 -16 -130 0 -146 7 -7 39 -12 73 -12 34 0 66 5
73 12 7 7 12 39 12 73 0 34 -5 66 -12 73 -7 7 -39 12 -73 12 -34 0 -66 -5 -73
-12z"/>
<path d="M4462 6828 c-16 -16 -16 -130 0 -146 7 -7 39 -12 73 -12 34 0 66 5
73 12 7 7 12 39 12 73 0 34 -5 66 -12 73 -7 7 -39 12 -73 12 -34 0 -66 -5 -73
-12z"/>
<path d="M4892 6828 c-16 -16 -16 -130 0 -146 17 -17 126 -15 144 2 17 18 19
127 2 144 -7 7 -39 12 -73 12 -34 0 -66 -5 -73 -12z"/>
<path d="M5102 6828 c-16 -16 -16 -130 0 -146 7 -7 39 -12 73 -12 34 0 66 5
73 12 7 7 12 39 12 73 0 34 -5 66 -12 73 -7 7 -39 12 -73 12 -34 0 -66 -5 -73
-12z"/>
<path d="M5312 6828 c-7 -7 -12 -39 -12 -73 0 -34 5 -66 12 -73 7 -7 39 -12
73 -12 34 0 66 5 73 12 7 7 12 39 12 73 0 34 -5 66 -12 73 -7 7 -39 12 -73 12
-34 0 -66 -5 -73 -12z"/>
<path d="M5742 6828 c-7 -7 -12 -39 -12 -73 0 -34 5 -66 12 -73 15 -15 112
-16 139 -2 16 9 19 22 19 75 0 53 -3 66 -19 75 -27 14 -124 13 -139 -2z"/>
<path d="M212 6618 c-16 -16 -16 -130 0 -146 7 -7 39 -12 73 -12 34 0 66 5 73
12 16 16 16 130 0 146 -7 7 -39 12 -73 12 -34 0 -66 -5 -73 -12z"/>
<path d="M852 6618 c-16 -16 -16 -130 0 -146 7 -7 39 -12 73 -12 34 0 66 5 73
12 16 16 16 130 0 146 -7 7 -39 12 -73 12 -34 0 -66 -5 -73 -12z"/>
<path d="M1062 6618 c-16 -16 -16 -130 0 -146 7 -7 39 -12 73 -12 34 0 66 5
73 12 16 16 16 130 0 146 -7 7 -39 12 -73 12 -34 0 -66 -5 -73 -12z"/>
<path d="M1280 6614 c-8 -8 -14 -42 -14 -75 -2 -72 6 -79 87 -79 70 0 85 16
81 88 -1 29 -8 60 -15 68 -17 20 -122 19 -139 -2z"/>
<path d="M1492 6618 c-7 -7 -12 -39 -12 -73 0 -34 5 -66 12 -73 7 -7 39 -12
73 -12 34 0 66 5 73 12 7 7 12 39 12 73 0 34 -5 66 -12 73 -7 7 -39 12 -73 12
-34 0 -66 -5 -73 -12z"/>
<path d="M1702 6618 c-7 -7 -12 -39 -12 -73 0 -34 5 -66 12 -73 7 -7 39 -12
73 -12 34 0 66 5 73 12 7 7 12 39 12 73 0 34 -5 66 -12 73 -7 7 -39 12 -73 12
-34 0 -66 -5 -73 -12z"/>
<path d="M1912 6618 c-7 -7 -12 -39 -12 -73 0 -34 5 -66 12 -73 7 -7 39 -12
73 -12 34 0 66 5 73 12 7 7 12 39 12 73 0 34 -5 66 -12 73 -7 7 -39 12 -73 12
-34 0 -66 -5 -73 -12z"/>
<path d="M2126 6608 c-15 -23 -16 -114 -1 -137 9 -15 128 -14 143 1 7 7 12 39
12 73 0 34 -5 66 -12 73 -7 7 -38 12 -70 12 -49 0 -60 -3 -72 -22z"/>
<path d="M2552 6618 c-16 -16 -16 -130 0 -146 7 -7 39 -12 73 -12 34 0 66 5
73 12 7 7 12 39 12 73 0 34 -5 66 -12 73 -7 7 -39 12 -73 12 -34 0 -66 -5 -73
-12z"/>
<path d="M3192 6618 c-16 -16 -16 -130 0 -146 7 -7 39 -12 73 -12 34 0 66 5
73 12 7 7 12 39 12 75 0 51 -3 64 -19 73 -27 14 -124 13 -139 -2z"/>
<path d="M3402 6618 c-16 -16 -16 -130 0 -146 7 -7 39 -12 73 -12 34 0 66 5
73 12 7 7 12 39 12 73 0 34 -5 66 -12 73 -7 7 -39 12 -73 12 -34 0 -66 -5 -73
-12z"/>
<path d="M4678 6619 c-27 -15 -26 -134 1 -149 27 -14 124 -13 139 2 7 7 12 39
12 73 0 34 -5 66 -12 73 -15 15 -116 15 -140 1z"/>
<path d="M4892 6618 c-16 -16 -16 -130 0 -146 7 -7 39 -12 73 -12 34 0 66 5
73 12 20 20 15 128 -5 144 -22 17 -125 18 -141 2z"/>
<path d="M5528 6619 c-14 -8 -18 -24 -18 -72 0 -36 5 -68 12 -75 7 -7 39 -12
73 -12 34 0 66 5 73 12 7 7 12 39 12 73 0 34 -5 66 -12 73 -15 15 -116 15
-140 1z"/>
<path d="M5742 6618 c-7 -7 -12 -39 -12 -73 0 -34 5 -66 12 -73 7 -7 39 -12
73 -12 34 0 66 5 73 12 20 20 15 128 -5 144 -22 17 -125 18 -141 2z"/>
<path d="M5952 6618 c-7 -7 -12 -39 -12 -73 0 -34 5 -66 12 -73 7 -7 39 -12
73 -12 34 0 66 5 73 12 7 7 12 39 12 73 0 34 -5 66 -12 73 -7 7 -39 12 -73 12
-34 0 -66 -5 -73 -12z"/>
<path d="M6162 6618 c-7 -7 -12 -39 -12 -73 0 -34 5 -66 12 -73 7 -7 39 -12
73 -12 34 0 66 5 73 12 7 7 12 39 12 73 0 34 -5 66 -12 73 -7 7 -39 12 -73 12
-34 0 -66 -5 -73 -12z"/>
<path d="M6372 6618 c-7 -7 -12 -39 -12 -73 0 -34 5 -66 12 -73 7 -7 39 -12
73 -12 34 0 66 5 73 12 7 7 12 39 12 73 0 34 -5 66 -12 73 -7 7 -39 12 -73 12
-34 0 -66 -5 -73 -12z"/>
<path d="M7012 6618 c-7 -7 -12 -39 -12 -73 0 -34 5 -66 12 -73 7 -7 39 -12
73 -12 34 0 66 5 73 12 7 7 12 39 12 73 0 34 -5 66 -12 73 -7 7 -39 12 -73 12
-34 0 -66 -5 -73 -12z"/>
<path d="M7440 6615 c-6 -7 -14 -39 -17 -70 -6 -70 9 -84 85 -85 82 0 91 8 87
80 -2 33 -8 67 -15 75 -17 20 -123 21 -140 0z"/>
<path d="M7652 6618 c-7 -7 -12 -39 -12 -73 0 -34 5 -66 12 -73 7 -7 39 -12
73 -12 34 0 66 5 73 12 7 7 12 39 12 73 0 34 -5 66 -12 73 -7 7 -39 12 -73 12
-34 0 -66 -5 -73 -12z"/>
<path d="M7862 6618 c-7 -7 -12 -39 -12 -73 0 -34 5 -66 12 -73 7 -7 39 -12
73 -12 34 0 66 5 73 12 7 7 12 39 12 73 0 34 -5 66 -12 73 -7 7 -39 12 -73 12
-34 0 -66 -5 -73 -12z"/>
<path d="M223 6405 c-19 -14 -23 -25 -23 -74 0 -31 5 -62 12 -69 7 -7 39 -12
73 -12 34 0 66 5 73 12 7 7 12 39 12 75 0 71 -7 78 -80 82 -28 1 -53 -4 -67
-14z"/>
<path d="M433 6405 c-14 -10 -18 -26 -17 -72 0 -33 4 -65 8 -71 10 -16 126
-15 148 1 20 16 20 115 -1 141 -16 20 -110 20 -138 1z"/>
<path d="M2765 6400 c-18 -20 -20 -121 -3 -138 7 -7 39 -12 73 -12 34 0 66 5
73 12 17 17 16 133 -2 147 -21 18 -123 11 -141 -9z"/>
<path d="M3618 6406 c-21 -16 -26 -124 -6 -144 7 -7 39 -12 73 -12 34 0 66 5
73 12 16 16 16 134 0 144 -23 14 -122 14 -140 0z"/>
<path d="M4053 6410 c-21 -8 -23 -16 -23 -73 0 -36 5 -68 12 -75 7 -7 39 -12
73 -12 34 0 66 5 73 12 7 7 12 38 12 69 0 48 -4 60 -22 73 -24 17 -90 20 -125
6z"/>
<path d="M5345 6413 c-11 -3 -26 -10 -32 -15 -17 -13 -17 -120 -1 -136 7 -7
39 -12 73 -12 34 0 66 5 73 12 7 7 12 39 12 73 0 34 -5 66 -12 73 -12 12 -74
14 -113 5z"/>
<path d="M5530 6403 c-16 -11 -20 -25 -20 -72 0 -31 5 -62 12 -69 7 -7 39 -12
73 -12 34 0 66 5 73 12 15 15 16 134 1 144 -22 13 -118 11 -139 -3z"/>
<path d="M5748 6409 c-14 -8 -18 -24 -18 -72 0 -36 5 -68 12 -75 7 -7 39 -12
73 -12 34 0 66 5 73 12 7 7 12 38 12 69 0 46 -4 61 -20 72 -24 16 -108 21
-132 6z"/>
<path d="M6600 6407 c-22 -11 -25 -20 -28 -70 -5 -74 8 -87 83 -87 82 0 95 10
95 73 0 74 -18 97 -78 97 -26 0 -58 -6 -72 -13z"/>
<path d="M6805 6407 c-19 -10 -21 -127 -3 -145 7 -7 39 -12 73 -12 34 0 66 5
73 12 20 20 15 122 -6 141 -19 17 -109 20 -137 4z"/>
<path d="M7230 6403 c-16 -11 -20 -26 -20 -72 0 -31 5 -62 12 -69 7 -7 39 -12
73 -12 34 0 66 5 73 12 17 17 16 133 -2 147 -19 16 -111 11 -136 -6z"/>
<path d="M7658 6409 c-14 -8 -18 -24 -18 -72 0 -36 5 -68 12 -75 7 -7 39 -12
73 -12 34 0 66 5 73 12 7 7 12 38 12 69 0 48 -4 60 -22 73 -25 18 -104 21
-130 5z"/>
<path d="M212 6188 c-16 -16 -16 -130 0 -146 7 -7 39 -12 73 -12 34 0 66 5 73
12 16 16 16 130 0 146 -7 7 -39 12 -73 12 -34 0 -66 -5 -73 -12z"/>
<path d="M431 6191 c-19 -12 -19 -124 -1 -146 17 -20 123 -21 140 0 19 23 20
127 1 142 -19 14 -119 17 -140 4z"/>
<path d="M642 6188 c-7 -7 -12 -39 -12 -73 0 -34 5 -66 12 -73 7 -7 39 -12 75
-12 51 0 64 3 73 19 14 27 13 124 -2 139 -7 7 -39 12 -73 12 -34 0 -66 -5 -73
-12z"/>
<path d="M852 6188 c-16 -16 -16 -130 0 -146 7 -7 39 -12 73 -12 34 0 66 5 73
12 16 16 16 130 0 146 -7 7 -39 12 -73 12 -34 0 -66 -5 -73 -12z"/>
<path d="M1283 6193 c-17 -6 -17 -135 -1 -151 7 -7 38 -12 69 -12 47 0 61 4
72 20 17 24 14 114 -4 136 -11 14 -108 19 -136 7z"/>
<path d="M1492 6188 c-7 -7 -12 -39 -12 -73 0 -34 5 -66 12 -73 16 -16 119
-15 141 2 20 16 25 124 5 144 -7 7 -39 12 -73 12 -34 0 -66 -5 -73 -12z"/>
<path d="M1912 6188 c-7 -7 -12 -39 -12 -73 0 -34 5 -66 12 -73 7 -7 39 -12
73 -12 34 0 66 5 73 12 7 7 12 39 12 73 0 34 -5 66 -12 73 -7 7 -39 12 -73 12
-34 0 -66 -5 -73 -12z"/>
<path d="M2123 6188 c-14 -18 -8 -125 7 -143 15 -18 120 -21 138 -3 7 7 12 39
12 73 0 34 -5 66 -12 73 -16 16 -133 16 -145 0z"/>
<path d="M2342 6188 c-7 -7 -12 -39 -12 -73 0 -34 5 -66 12 -73 18 -18 123
-15 142 4 19 19 22 124 4 142 -7 7 -39 12 -73 12 -34 0 -66 -5 -73 -12z"/>
<path d="M2552 6188 c-16 -16 -16 -130 0 -146 7 -7 39 -12 73 -12 34 0 66 5
73 12 7 7 12 39 12 73 0 34 -5 66 -12 73 -7 7 -39 12 -73 12 -34 0 -66 -5 -73
-12z"/>
<path d="M2762 6188 c-16 -16 -16 -130 0 -146 7 -7 39 -12 73 -12 34 0 66 5
73 12 7 7 12 39 12 73 0 34 -5 66 -12 73 -7 7 -39 12 -73 12 -34 0 -66 -5 -73
-12z"/>
<path d="M2972 6188 c-20 -20 -15 -122 6 -141 22 -20 122 -23 140 -5 7 7 12
39 12 73 0 34 -5 66 -12 73 -7 7 -39 12 -73 12 -34 0 -66 -5 -73 -12z"/>
<path d="M3192 6188 c-16 -16 -16 -130 0 -146 18 -18 123 -15 142 4 19 19 22
124 4 142 -7 7 -39 12 -73 12 -34 0 -66 -5 -73 -12z"/>
<path d="M3402 6188 c-16 -16 -16 -130 0 -146 7 -7 39 -12 75 -12 51 0 64 3
73 19 14 27 13 124 -2 139 -7 7 -39 12 -73 12 -34 0 -66 -5 -73 -12z"/>
<path d="M3612 6188 c-16 -16 -16 -130 0 -146 7 -7 39 -12 73 -12 34 0 66 5
73 12 7 7 12 39 12 73 0 34 -5 66 -12 73 -7 7 -39 12 -73 12 -34 0 -66 -5 -73
-12z"/>
<path d="M4252 6188 c-16 -16 -16 -130 0 -146 7 -7 39 -12 75 -12 51 0 64 3
73 19 14 27 13 124 -2 139 -7 7 -39 12 -73 12 -34 0 -66 -5 -73 -12z"/>
<path d="M4462 6188 c-16 -16 -16 -130 0 -146 7 -7 39 -12 73 -12 34 0 66 5
73 12 7 7 12 39 12 73 0 34 -5 66 -12 73 -7 7 -39 12 -73 12 -34 0 -66 -5 -73
-12z"/>
<path d="M4892 6188 c-16 -16 -16 -130 0 -146 20 -20 122 -15 141 6 20 22 23
122 5 140 -7 7 -39 12 -73 12 -34 0 -66 -5 -73 -12z"/>
<path d="M5102 6188 c-16 -16 -16 -130 0 -146 7 -7 39 -12 73 -12 34 0 66 5
73 12 7 7 12 39 12 73 0 34 -5 66 -12 73 -7 7 -39 12 -73 12 -34 0 -66 -5 -73
-12z"/>
<path d="M5522 6188 c-18 -18 -15 -123 4 -142 19 -19 124 -22 142 -4 7 7 12
39 12 73 0 34 -5 66 -12 73 -7 7 -39 12 -73 12 -34 0 -66 -5 -73 -12z"/>
<path d="M6590 6187 c-19 -15 -19 -120 0 -142 8 -10 32 -15 71 -15 75 0 91 18
82 99 -3 31 -10 59 -17 63 -18 12 -120 8 -136 -5z"/>
<path d="M7438 6183 c-18 -22 -17 -115 2 -138 17 -21 123 -21 140 1 7 8 14 42
16 75 2 71 -7 79 -89 79 -39 0 -58 -5 -69 -17z"/>
<path d="M7862 6188 c-7 -7 -12 -39 -12 -73 0 -34 5 -66 12 -73 7 -7 39 -12
73 -12 34 0 66 5 73 12 7 7 12 39 12 73 0 34 -5 66 -12 73 -7 7 -39 12 -73 12
-34 0 -66 -5 -73 -12z"/>
<path d="M642 5978 c-7 -7 -12 -39 -12 -73 0 -34 5 -66 12 -73 7 -7 39 -12 73
-12 34 0 66 5 73 12 16 16 16 130 0 146 -7 7 -39 12 -73 12 -34 0 -66 -5 -73
-12z"/>
<path d="M1062 5978 c-16 -16 -16 -130 0 -146 7 -7 39 -12 73 -12 34 0 66 5
73 12 16 16 16 130 0 146 -7 7 -39 12 -73 12 -34 0 -66 -5 -73 -12z"/>
<path d="M1702 5978 c-7 -7 -12 -39 -12 -73 0 -34 5 -66 12 -73 7 -7 39 -12
73 -12 34 0 66 5 73 12 7 7 12 39 12 73 0 34 -5 66 -12 73 -7 7 -39 12 -73 12
-34 0 -66 -5 -73 -12z"/>
<path d="M2762 5978 c-16 -16 -16 -130 0 -146 7 -7 39 -12 73 -12 34 0 66 5
73 12 7 7 12 39 12 73 0 34 -5 66 -12 73 -7 7 -39 12 -73 12 -34 0 -66 -5 -73
-12z"/>
<path d="M3192 5978 c-16 -16 -16 -130 0 -146 15 -15 112 -16 139 -2 16 9 19
22 19 75 0 53 -3 66 -19 75 -27 14 -124 13 -139 -2z"/>
<path d="M3612 5978 c-16 -16 -16 -130 0 -146 7 -7 39 -12 73 -12 34 0 66 5
73 12 7 7 12 39 12 73 0 34 -5 66 -12 73 -7 7 -39 12 -73 12 -34 0 -66 -5 -73
-12z"/>
<path d="M3828 5976 c-14 -10 -18 -28 -18 -71 0 -43 4 -61 18 -71 21 -17 124
-18 140 -2 7 7 12 39 12 73 0 34 -5 66 -12 73 -16 16 -119 15 -140 -2z"/>
<path d="M4252 5978 c-16 -16 -16 -130 0 -146 7 -7 39 -12 73 -12 34 0 66 5
73 12 7 7 12 39 12 73 0 34 -5 66 -12 73 -7 7 -39 12 -73 12 -34 0 -66 -5 -73
-12z"/>
<path d="M4462 5978 c-16 -16 -16 -130 0 -146 7 -7 39 -12 73 -12 34 0 66 5
73 12 7 7 12 39 12 73 0 34 -5 66 -12 73 -7 7 -39 12 -73 12 -34 0 -66 -5 -73
-12z"/>
<path d="M4892 5978 c-16 -16 -16 -130 0 -146 15 -15 112 -16 139 -2 16 9 19
22 19 73 0 36 -5 68 -12 75 -7 7 -39 12 -73 12 -34 0 -66 -5 -73 -12z"/>
<path d="M5102 5978 c-16 -16 -16 -130 0 -146 7 -7 39 -12 73 -12 34 0 66 5
73 12 7 7 12 39 12 73 0 34 -5 66 -12 73 -7 7 -39 12 -73 12 -34 0 -66 -5 -73
-12z"/>
<path d="M5312 5978 c-7 -7 -12 -39 -12 -73 0 -34 5 -66 12 -73 7 -7 39 -12
73 -12 34 0 66 5 73 12 7 7 12 39 12 73 0 34 -5 66 -12 73 -7 7 -39 12 -73 12
-34 0 -66 -5 -73 -12z"/>
<path d="M5952 5978 c-7 -7 -12 -39 -12 -73 0 -34 5 -66 12 -73 7 -7 39 -12
73 -12 34 0 66 5 73 12 7 7 12 39 12 73 0 34 -5 66 -12 73 -7 7 -39 12 -73 12
-34 0 -66 -5 -73 -12z"/>
<path d="M6592 5977 c-17 -20 -19 -121 -3 -141 21 -25 125 -23 144 4 16 22 12
116 -5 138 -14 16 -122 16 -136 -1z"/>
<path d="M6802 5978 c-7 -7 -12 -39 -12 -73 0 -34 5 -66 12 -73 7 -7 39 -12
73 -12 34 0 66 5 73 12 7 7 12 39 12 73 0 34 -5 66 -12 73 -7 7 -39 12 -73 12
-34 0 -66 -5 -73 -12z"/>
<path d="M7012 5978 c-7 -7 -12 -39 -12 -73 0 -34 5 -66 12 -73 7 -7 39 -12
73 -12 34 0 66 5 73 12 7 7 12 39 12 73 0 34 -5 66 -12 73 -7 7 -39 12 -73 12
-34 0 -66 -5 -73 -12z"/>
<path d="M7222 5978 c-7 -7 -12 -39 -12 -73 0 -34 5 -66 12 -73 7 -7 39 -12
73 -12 34 0 66 5 73 12 7 7 12 39 12 73 0 34 -5 66 -12 73 -7 7 -39 12 -73 12
-34 0 -66 -5 -73 -12z"/>
<path d="M7442 5978 c-5 -7 -12 -41 -14 -74 -5 -73 6 -84 81 -84 79 0 81 2 81
85 0 57 -3 74 -16 79 -28 11 -121 6 -132 -6z"/>
<path d="M7652 5978 c-7 -7 -12 -39 -12 -73 0 -34 5 -66 12 -73 7 -7 39 -12
73 -12 34 0 66 5 73 12 7 7 12 39 12 73 0 34 -5 66 -12 73 -7 7 -39 12 -73 12
-34 0 -66 -5 -73 -12z"/>
<path d="M7862 5978 c-7 -7 -12 -39 -12 -73 0 -34 5 -66 12 -73 7 -7 39 -12
73 -12 34 0 66 5 73 12 7 7 12 39 12 73 0 34 -5 66 -12 73 -7 7 -39 12 -73 12
-34 0 -66 -5 -73 -12z"/>
<path d="M212 5768 c-16 -16 -16 -130 0 -146 7 -7 39 -12 73 -12 34 0 66 5 73
12 16 16 16 130 0 146 -7 7 -39 12 -73 12 -34 0 -66 -5 -73 -12z"/>
<path d="M642 5768 c-7 -7 -12 -39 -12 -73 0 -34 5 -66 12 -73 7 -7 39 -12 73
-12 34 0 66 5 73 12 16 16 16 130 0 146 -7 7 -39 12 -73 12 -34 0 -66 -5 -73
-12z"/>
<path d="M1279 5763 c-20 -23 -19 -131 1 -143 21 -14 122 -12 140 3 10 8 15
31 15 72 0 41 -5 64 -15 72 -23 19 -125 16 -141 -4z"/>
<path d="M1492 5768 c-7 -7 -12 -39 -12 -73 0 -34 5 -66 12 -73 7 -7 39 -12
73 -12 34 0 66 5 73 12 7 7 12 39 12 73 0 34 -5 66 -12 73 -7 7 -39 12 -73 12
-34 0 -66 -5 -73 -12z"/>
<path d="M2342 5768 c-7 -7 -12 -39 -12 -73 0 -34 5 -66 12 -73 7 -7 39 -12
73 -12 34 0 66 5 73 12 7 7 12 39 12 73 0 34 -5 66 -12 73 -7 7 -39 12 -73 12
-34 0 -66 -5 -73 -12z"/>
<path d="M2978 5766 c-27 -20 -26 -131 1 -146 27 -14 124 -13 139 2 7 7 12 39
12 73 0 34 -5 66 -12 73 -16 16 -119 15 -140 -2z"/>
<path d="M3192 5768 c-16 -16 -16 -130 0 -146 7 -7 39 -12 73 -12 34 0 66 5
73 12 7 7 12 39 12 75 0 51 -3 64 -19 73 -27 14 -124 13 -139 -2z"/>
<path d="M3402 5768 c-16 -16 -16 -130 0 -146 7 -7 39 -12 73 -12 34 0 66 5
73 12 7 7 12 39 12 73 0 34 -5 66 -12 73 -7 7 -39 12 -73 12 -34 0 -66 -5 -73
-12z"/>
<path d="M3612 5768 c-16 -16 -16 -130 0 -146 7 -7 39 -12 73 -12 34 0 66 5
73 12 7 7 12 39 12 73 0 34 -5 66 -12 73 -7 7 -39 12 -73 12 -34 0 -66 -5 -73
-12z"/>
<path d="M3828 5766 c-23 -17 -25 -120 -4 -142 18 -17 127 -19 144 -2 7 7 12
39 12 73 0 34 -5 66 -12 73 -16 16 -119 15 -140 -2z"/>
<path d="M4462 5768 c-16 -16 -16 -130 0 -146 7 -7 39 -12 73 -12 34 0 66 5
73 12 7 7 12 39 12 73 0 34 -5 66 -12 73 -7 7 -39 12 -73 12 -34 0 -66 -5 -73
-12z"/>
<path d="M4892 5768 c-16 -16 -16 -130 0 -146 7 -7 39 -12 73 -12 34 0 66 5
73 12 20 20 15 128 -5 144 -22 17 -125 18 -141 2z"/>
<path d="M5102 5768 c-16 -16 -16 -130 0 -146 7 -7 39 -12 73 -12 34 0 66 5
73 12 7 7 12 39 12 73 0 34 -5 66 -12 73 -7 7 -39 12 -73 12 -34 0 -66 -5 -73
-12z"/>
<path d="M6162 5768 c-7 -7 -12 -39 -12 -73 0 -34 5 -66 12 -73 7 -7 39 -12
73 -12 34 0 66 5 73 12 7 7 12 39 12 73 0 34 -5 66 -12 73 -7 7 -39 12 -73 12
-34 0 -66 -5 -73 -12z"/>
<path d="M6372 5768 c-7 -7 -12 -39 -12 -73 0 -34 5 -66 12 -73 7 -7 39 -12
73 -12 34 0 66 5 73 12 7 7 12 39 12 73 0 34 -5 66 -12 73 -7 7 -39 12 -73 12
-34 0 -66 -5 -73 -12z"/>
<path d="M6589 5763 c-16 -18 -13 -120 3 -140 13 -17 118 -16 138 0 19 15 19
119 0 142 -18 22 -123 21 -141 -2z"/>
<path d="M7862 5768 c-7 -7 -12 -39 -12 -73 0 -34 5 -66 12 -73 7 -7 39 -12
73 -12 34 0 66 5 73 12 7 7 12 39 12 73 0 34 -5 66 -12 73 -7 7 -39 12 -73 12
-34 0 -66 -5 -73 -12z"/>
<path d="M430 5555 c-19 -23 -21 -123 -3 -141 18 -17 121 -19 143 -1 20 15 21
117 1 140 -18 23 -123 24 -141 2z"/>
<path d="M852 5550 c-15 -25 -16 -122 0 -138 7 -7 39 -12 73 -12 34 0 66 5 73
12 16 16 15 119 -2 141 -20 26 -127 24 -144 -3z"/>
<path d="M1062 5550 c-15 -25 -16 -122 0 -138 7 -7 39 -12 73 -12 34 0 66 5
73 12 15 15 16 112 2 139 -9 16 -22 19 -73 19 -51 0 -64 -4 -75 -20z"/>
<path d="M1279 5554 c-7 -9 -14 -43 -15 -76 -1 -47 3 -61 17 -68 25 -14 121
-12 140 3 20 15 20 116 0 140 -19 23 -123 24 -142 1z"/>
<path d="M2129 5554 c-16 -19 -20 -111 -7 -136 7 -14 22 -18 71 -18 36 0 68 5
75 12 7 7 12 39 12 73 0 34 -5 66 -12 73 -19 19 -123 15 -139 -4z"/>
<path d="M2342 5558 c-7 -7 -12 -39 -12 -73 0 -34 5 -66 12 -73 7 -7 39 -12
73 -12 34 0 66 5 73 12 20 20 15 122 -6 141 -22 20 -122 23 -140 5z"/>
<path d="M5527 5552 c-20 -22 -23 -122 -5 -140 7 -7 39 -12 73 -12 34 0 66 5
73 12 7 7 12 39 12 73 0 34 -5 66 -12 73 -20 20 -122 15 -141 -6z"/>
<path d="M5742 5558 c-7 -7 -12 -39 -12 -73 0 -34 5 -66 12 -73 7 -7 39 -12
73 -12 34 0 66 5 73 12 20 20 15 122 -6 141 -22 20 -122 23 -140 5z"/>
<path d="M5950 5551 c-14 -27 -13 -124 2 -139 7 -7 39 -12 73 -12 34 0 66 5
73 12 16 16 15 119 -2 141 -20 26 -131 25 -146 -2z"/>
<path d="M6160 5551 c-14 -27 -13 -124 2 -139 7 -7 39 -12 73 -12 34 0 66 5
73 12 15 15 16 112 2 139 -9 16 -22 19 -75 19 -53 0 -66 -3 -75 -19z"/>
<path d="M7012 5550 c-15 -25 -16 -122 0 -138 7 -7 39 -12 73 -12 34 0 66 5
73 12 15 15 16 112 2 139 -9 16 -22 19 -73 19 -51 0 -64 -4 -75 -20z"/>
<path d="M7222 5550 c-15 -25 -16 -122 0 -138 7 -7 39 -12 73 -12 34 0 66 5
73 12 7 7 12 39 12 73 0 34 -5 66 -12 73 -7 7 -39 12 -73 12 -49 0 -62 -4 -73
-20z"/>
<path d="M7652 5558 c-7 -7 -12 -39 -12 -73 0 -34 5 -66 12 -73 7 -7 39 -12
73 -12 34 0 66 5 73 12 16 16 15 119 -2 141 -16 20 -124 25 -144 5z"/>
<path d="M3280 5383 c-60 -26 -98 -61 -124 -117 l-26 -55 0 -774 c0 -703 2
-777 17 -808 30 -62 64 -98 116 -124 l51 -25 781 0 c594 0 784 3 793 12 7 7
12 9 12 5 0 -23 94 61 120 106 l30 52 0 781 0 780 -25 51 c-26 52 -62 86 -124
116 -31 15 -104 17 -810 16 -669 -1 -781 -3 -811 -16z m763 -428 c90 -23 169
-68 223 -127 44 -49 104 -151 104 -177 0 -6 -15 -11 -33 -11 -44 0 -176 -34
-219 -56 -56 -29 -144 -121 -169 -177 -18 -41 -23 -70 -23 -139 l0 -88 -32 0
c-18 0 -60 7 -93 16 l-60 15 -68 -41 c-39 -23 -71 -36 -76 -31 -5 5 -4 25 2
47 18 65 14 82 -30 121 -22 20 -59 68 -82 107 -41 69 -42 73 -42 161 0 75 4
98 24 139 31 62 146 180 197 203 122 52 266 67 377 38z m399 -356 c84 -18 151
-55 207 -114 67 -71 91 -123 91 -202 0 -85 -23 -137 -88 -205 l-56 -58 10 -50
c6 -28 8 -53 4 -55 -4 -3 -33 9 -63 26 -51 27 -60 29 -94 20 -62 -17 -162 -13
-240 10 -40 12 -73 26 -73 30 0 5 -5 9 -11 9 -6 0 -16 6 -23 13 -7 6 -32 29
-55 50 -57 51 -84 108 -89 185 -4 63 13 152 29 152 5 0 9 6 9 13 0 18 108 121
147 141 81 40 201 55 295 35z"/>
<path d="M3714 4734 c-37 -56 27 -113 77 -68 23 21 24 42 3 72 -21 30 -59 29
-80 -4z"/>
<path d="M4039 4750 c-46 -27 -24 -100 31 -100 33 0 50 17 50 51 0 48 -41 72
-81 49z"/>
<path d="M4178 4406 c-14 -31 -5 -53 27 -68 22 -10 28 -8 45 12 11 13 20 27
20 32 0 49 -72 68 -92 24z"/>
<path d="M4442 4418 c-16 -16 -15 -39 4 -66 19 -27 38 -28 63 -3 29 29 15 75
-25 79 -16 2 -35 -3 -42 -10z"/>
<path d="M212 5338 c-16 -16 -15 -119 2 -140 16 -21 124 -26 144 -6 16 16 16
130 0 146 -7 7 -39 12 -73 12 -34 0 -66 -5 -73 -12z"/>
<path d="M432 5341 c-7 -4 -14 -33 -16 -67 -5 -79 9 -94 84 -94 71 0 86 15 89
89 2 41 -2 56 -16 67 -20 15 -120 19 -141 5z"/>
<path d="M852 5338 c-16 -16 -16 -130 0 -146 7 -7 39 -12 73 -12 34 0 66 5 73
12 16 16 16 130 0 146 -7 7 -39 12 -73 12 -34 0 -66 -5 -73 -12z"/>
<path d="M1062 5338 c-15 -15 -16 -112 -2 -139 9 -16 22 -19 75 -19 53 0 66 3
75 19 14 27 13 124 -2 139 -7 7 -39 12 -73 12 -34 0 -66 -5 -73 -12z"/>
<path d="M1277 5339 c-14 -8 -18 -22 -16 -67 3 -77 17 -92 87 -92 77 0 91 15
85 88 -3 31 -10 63 -15 70 -13 15 -115 16 -141 1z"/>
<path d="M1492 5338 c-7 -7 -12 -39 -12 -73 0 -34 5 -66 12 -73 7 -7 39 -12
75 -12 51 0 64 3 73 19 14 27 13 124 -2 139 -7 7 -39 12 -73 12 -34 0 -66 -5
-73 -12z"/>
<path d="M1702 5338 c-15 -15 -16 -112 -2 -139 9 -16 22 -19 75 -19 53 0 66 3
75 19 14 27 13 124 -2 139 -7 7 -39 12 -73 12 -34 0 -66 -5 -73 -12z"/>
<path d="M1912 5338 c-15 -15 -16 -112 -2 -139 9 -16 22 -19 73 -19 36 0 68 5
75 12 7 7 12 39 12 73 0 34 -5 66 -12 73 -7 7 -39 12 -73 12 -34 0 -66 -5 -73
-12z"/>
<path d="M5312 5338 c-7 -7 -12 -39 -12 -73 0 -34 5 -66 12 -73 7 -7 39 -12
75 -12 51 0 64 3 73 19 14 27 13 124 -2 139 -7 7 -39 12 -73 12 -34 0 -66 -5
-73 -12z"/>
<path d="M5522 5338 c-18 -18 -15 -123 4 -142 19 -19 124 -22 142 -4 7 7 12
39 12 73 0 34 -5 66 -12 73 -7 7 -39 12 -73 12 -34 0 -66 -5 -73 -12z"/>
<path d="M5952 5338 c-7 -7 -12 -39 -12 -73 0 -34 5 -66 12 -73 20 -20 128
-15 144 6 17 21 18 124 2 140 -7 7 -39 12 -73 12 -34 0 -66 -5 -73 -12z"/>
<path d="M6162 5338 c-15 -15 -16 -112 -2 -139 9 -16 22 -19 73 -19 36 0 68 5
75 12 7 7 12 39 12 73 0 34 -5 66 -12 73 -7 7 -39 12 -73 12 -34 0 -66 -5 -73
-12z"/>
<path d="M6593 5338 c-6 -7 -13 -36 -16 -64 -8 -76 8 -94 82 -94 36 0 63 5 69
13 6 7 14 40 18 72 6 50 4 60 -11 71 -24 18 -129 18 -142 2z"/>
<path d="M7012 5338 c-7 -7 -12 -39 -12 -73 0 -34 5 -66 12 -73 7 -7 39 -12
73 -12 34 0 66 5 73 12 7 7 12 39 12 73 0 34 -5 66 -12 73 -7 7 -39 12 -73 12
-34 0 -66 -5 -73 -12z"/>
<path d="M7222 5338 c-16 -16 -15 -119 2 -140 16 -21 124 -26 144 -6 7 7 12
39 12 73 0 34 -5 66 -12 73 -7 7 -39 12 -73 12 -34 0 -66 -5 -73 -12z"/>
<path d="M7436 5335 c-16 -12 -18 -22 -12 -71 4 -32 12 -64 18 -71 16 -20 122
-17 139 4 17 19 13 134 -4 145 -21 13 -121 8 -141 -7z"/>
<path d="M7862 5338 c-7 -7 -12 -39 -12 -73 0 -34 5 -66 12 -73 7 -7 39 -12
75 -12 51 0 64 3 73 19 14 27 13 124 -2 139 -7 7 -39 12 -73 12 -34 0 -66 -5
-73 -12z"/>
<path d="M212 5128 c-16 -16 -16 -130 0 -146 7 -7 39 -12 73 -12 34 0 66 5 73
12 16 16 16 130 0 146 -7 7 -39 12 -73 12 -34 0 -66 -5 -73 -12z"/>
<path d="M431 5131 c-8 -5 -16 -32 -19 -65 -6 -78 11 -96 88 -96 76 0 93 18
88 92 -2 31 -9 58 -18 65 -17 14 -118 17 -139 4z"/>
<path d="M852 5128 c-7 -7 -12 -39 -12 -73 0 -34 5 -66 12 -73 7 -7 39 -12 73
-12 34 0 66 5 73 12 16 16 16 130 0 146 -7 7 -39 12 -73 12 -34 0 -66 -5 -73
-12z"/>
<path d="M1062 5128 c-7 -7 -12 -39 -12 -73 0 -34 5 -66 12 -73 7 -7 39 -12
73 -12 34 0 66 5 73 12 16 16 16 130 0 146 -7 7 -39 12 -73 12 -34 0 -66 -5
-73 -12z"/>
<path d="M1278 5126 c-27 -20 -26 -131 1 -146 27 -14 122 -12 142 3 24 19 26
125 2 143 -23 17 -122 18 -145 0z"/>
<path d="M2122 5128 c-17 -17 -15 -109 4 -136 13 -18 25 -22 73 -22 31 0 62 5
69 12 7 7 12 39 12 73 0 34 -5 66 -12 73 -7 7 -39 12 -73 12 -34 0 -66 -5 -73
-12z"/>
<path d="M2762 5128 c-16 -16 -16 -130 0 -146 7 -7 39 -12 73 -12 34 0 66 5
73 12 7 7 12 39 12 73 0 34 -5 66 -12 73 -7 7 -39 12 -73 12 -34 0 -66 -5 -73
-12z"/>
<path d="M6162 5128 c-7 -7 -12 -39 -12 -73 0 -34 5 -66 12 -73 7 -7 39 -12
73 -12 34 0 66 5 73 12 7 7 12 39 12 73 0 34 -5 66 -12 73 -7 7 -39 12 -73 12
-34 0 -66 -5 -73 -12z"/>
<path d="M6372 5128 c-7 -7 -12 -39 -12 -73 0 -34 5 -66 12 -73 7 -7 39 -12
73 -12 34 0 66 5 73 12 7 7 12 39 12 73 0 34 -5 66 -12 73 -7 7 -39 12 -73 12
-34 0 -66 -5 -73 -12z"/>
<path d="M6588 5126 c-13 -10 -18 -28 -18 -68 0 -72 17 -88 92 -88 75 0 92 19
86 96 -3 33 -11 60 -19 65 -21 13 -122 10 -141 -5z"/>
<path d="M6802 5128 c-7 -7 -12 -39 -12 -73 0 -34 5 -66 12 -73 7 -7 39 -12
73 -12 34 0 66 5 73 12 7 7 12 39 12 73 0 34 -5 66 -12 73 -7 7 -39 12 -73 12
-34 0 -66 -5 -73 -12z"/>
<path d="M7222 5128 c-7 -7 -12 -39 -12 -73 0 -34 5 -66 12 -73 7 -7 39 -12
73 -12 34 0 66 5 73 12 7 7 12 39 12 73 0 34 -5 66 -12 73 -7 7 -39 12 -73 12
-34 0 -66 -5 -73 -12z"/>
<path d="M7439 5124 c-15 -18 -13 -122 3 -141 13 -16 112 -17 136 -2 14 9 17
23 15 76 -1 42 -7 69 -15 74 -24 16 -124 10 -139 -7z"/>
<path d="M7652 5128 c-7 -7 -12 -39 -12 -73 0 -34 5 -66 12 -73 7 -7 39 -12
73 -12 34 0 66 5 73 12 7 7 12 39 12 73 0 34 -5 66 -12 73 -7 7 -39 12 -73 12
-34 0 -66 -5 -73 -12z"/>
<path d="M7862 5128 c-7 -7 -12 -39 -12 -73 0 -34 5 -66 12 -73 7 -7 39 -12
73 -12 34 0 66 5 73 12 7 7 12 39 12 73 0 34 -5 66 -12 73 -7 7 -39 12 -73 12
-34 0 -66 -5 -73 -12z"/>
<path d="M429 4917 c-21 -16 -20 -134 2 -148 21 -13 121 -10 140 4 19 15 20
117 0 141 -16 19 -118 22 -142 3z"/>
<path d="M852 4918 c-7 -7 -12 -39 -12 -73 0 -34 5 -66 12 -73 7 -7 39 -12 73
-12 34 0 66 5 73 12 16 16 16 130 0 146 -16 16 -130 16 -146 0z"/>
<path d="M1279 4914 c-17 -21 -18 -116 0 -137 16 -20 118 -23 141 -4 20 16 20
117 1 140 -19 23 -123 24 -142 1z"/>
<path d="M1492 4918 c-7 -7 -12 -39 -12 -73 0 -34 5 -66 12 -73 7 -7 39 -12
73 -12 34 0 66 5 73 12 7 7 12 39 12 73 0 34 -5 66 -12 73 -16 16 -130 16
-146 0z"/>
<path d="M1702 4918 c-7 -7 -12 -39 -12 -73 0 -34 5 -66 12 -73 7 -7 39 -12
73 -12 34 0 66 5 73 12 7 7 12 39 12 73 0 34 -5 66 -12 73 -16 16 -130 16
-146 0z"/>
<path d="M2128 4913 c-18 -21 -21 -98 -6 -130 10 -20 19 -23 73 -23 34 0 66 5
73 12 7 7 12 39 12 73 0 34 -5 66 -12 73 -19 19 -122 15 -140 -5z"/>
<path d="M2342 4918 c-7 -7 -12 -39 -12 -73 0 -34 5 -66 12 -73 7 -7 39 -12
73 -12 34 0 66 5 73 12 7 7 12 39 12 73 0 34 -5 66 -12 73 -16 16 -130 16
-146 0z"/>
<path d="M2762 4918 c-16 -16 -16 -130 0 -146 7 -7 39 -12 73 -12 34 0 66 5
73 12 7 7 12 39 12 73 0 34 -5 66 -12 73 -16 16 -130 16 -146 0z"/>
<path d="M5312 4918 c-7 -7 -12 -39 -12 -73 0 -34 5 -66 12 -73 7 -7 39 -12
73 -12 34 0 66 5 73 12 7 7 12 39 12 73 0 34 -5 66 -12 73 -16 16 -130 16
-146 0z"/>
<path d="M5742 4918 c-7 -7 -12 -39 -12 -73 0 -34 5 -66 12 -73 17 -17 126
-15 144 2 9 10 14 36 14 75 0 49 -3 62 -19 71 -27 14 -124 13 -139 -2z"/>
<path d="M6162 4918 c-7 -7 -12 -39 -12 -73 0 -34 5 -66 12 -73 7 -7 39 -12
73 -12 34 0 66 5 73 12 7 7 12 39 12 73 0 34 -5 66 -12 73 -16 16 -130 16
-146 0z"/>
<path d="M6372 4918 c-7 -7 -12 -39 -12 -73 0 -34 5 -66 12 -73 7 -7 39 -12
73 -12 34 0 66 5 73 12 7 7 12 39 12 73 0 34 -5 66 -12 73 -16 16 -130 16
-146 0z"/>
<path d="M6589 4913 c-20 -24 -20 -125 0 -140 24 -18 126 -17 141 2 19 23 21
109 4 134 -13 17 -25 21 -73 21 -42 0 -62 -5 -72 -17z"/>
<path d="M6802 4918 c-7 -7 -12 -39 -12 -73 0 -34 5 -66 12 -73 7 -7 39 -12
73 -12 34 0 66 5 73 12 7 7 12 39 12 73 0 34 -5 66 -12 73 -16 16 -130 16
-146 0z"/>
<path d="M7012 4918 c-7 -7 -12 -39 -12 -73 0 -34 5 -66 12 -73 7 -7 39 -12
73 -12 34 0 66 5 73 12 7 7 12 39 12 73 0 34 -5 66 -12 73 -16 16 -130 16
-146 0z"/>
<path d="M7438 4913 c-18 -22 -17 -115 2 -138 14 -17 110 -21 140 -5 16 8 18
20 16 70 -2 33 -9 67 -16 75 -19 22 -122 20 -142 -2z"/>
<path d="M7652 4918 c-7 -7 -12 -39 -12 -73 0 -34 5 -66 12 -73 7 -7 39 -12
73 -12 34 0 66 5 73 12 7 7 12 39 12 73 0 34 -5 66 -12 73 -16 16 -130 16
-146 0z"/>
<path d="M212 4700 c-15 -25 -16 -122 0 -138 7 -7 39 -12 73 -12 34 0 66 5 73
12 16 16 16 130 0 146 -7 7 -39 12 -73 12 -49 0 -62 -4 -73 -20z"/>
<path d="M432 4707 c-17 -21 -18 -137 -1 -148 21 -13 122 -10 142 5 25 19 24
116 -1 139 -23 21 -124 24 -140 4z"/>
<path d="M643 4705 c-16 -18 -17 -127 -1 -143 7 -7 39 -12 73 -12 34 0 66 5
73 12 16 16 15 119 -2 141 -17 22 -124 24 -143 2z"/>
<path d="M1276 4701 c-21 -23 -20 -116 2 -137 16 -17 114 -19 140 -3 15 9 17
22 14 73 -2 33 -9 67 -14 74 -17 20 -122 16 -142 -7z"/>
<path d="M1912 4700 c-15 -25 -16 -122 0 -138 7 -7 39 -12 73 -12 34 0 66 5
73 12 17 17 15 126 -2 144 -9 9 -36 14 -73 14 -47 0 -61 -4 -71 -20z"/>
<path d="M2126 4701 c-14 -15 -17 -32 -13 -74 2 -30 7 -60 11 -66 10 -15 129
-14 144 1 7 7 12 39 12 73 0 34 -5 66 -12 73 -7 7 -37 12 -68 12 -44 0 -61 -5
-74 -19z"/>
<path d="M2762 4700 c-15 -25 -16 -122 0 -138 7 -7 39 -12 73 -12 34 0 66 5
73 12 7 7 12 39 12 73 0 34 -5 66 -12 73 -7 7 -39 12 -73 12 -49 0 -62 -4 -73
-20z"/>
<path d="M5742 4708 c-7 -7 -12 -39 -12 -73 0 -34 5 -66 12 -73 7 -7 39 -12
73 -12 34 0 66 5 73 12 20 20 15 122 -6 141 -22 20 -122 23 -140 5z"/>
<path d="M6162 4700 c-15 -25 -16 -122 0 -138 7 -7 39 -12 73 -12 34 0 66 5
73 12 15 15 16 112 2 139 -9 16 -22 19 -73 19 -51 0 -64 -4 -75 -20z"/>
<path d="M6592 4708 c-16 -21 -19 -123 -3 -141 15 -19 110 -24 140 -7 25 13
29 115 5 141 -20 23 -125 27 -142 7z"/>
<path d="M7436 4701 c-13 -14 -17 -33 -15 -68 3 -68 20 -83 88 -83 31 0 62 4
70 9 17 11 16 127 -1 148 -17 21 -121 17 -142 -6z"/>
<path d="M642 4488 c-7 -7 -12 -39 -12 -73 0 -34 5 -66 12 -73 20 -20 122 -15
141 6 20 22 23 122 5 140 -16 16 -130 16 -146 0z"/>
<path d="M1275 4490 c-3 -5 -9 -32 -12 -59 -4 -38 -2 -57 11 -76 14 -22 23
-25 75 -25 40 0 63 5 71 15 18 22 19 127 0 142 -18 15 -136 17 -145 3z"/>
<path d="M1492 4488 c-15 -15 -16 -112 -2 -139 15 -27 126 -28 146 -1 17 21
18 124 2 140 -16 16 -130 16 -146 0z"/>
<path d="M1912 4488 c-16 -16 -15 -119 2 -140 20 -27 131 -26 146 1 14 27 13
124 -2 139 -16 16 -130 16 -146 0z"/>
<path d="M2125 4490 c-3 -5 -9 -32 -12 -59 -9 -77 11 -101 85 -101 32 0 63 5
70 12 7 7 12 39 12 73 0 34 -5 66 -12 73 -14 14 -134 16 -143 2z"/>
<path d="M2342 4488 c-15 -15 -16 -112 -2 -139 15 -27 119 -28 143 -1 20 22
23 122 5 140 -16 16 -130 16 -146 0z"/>
<path d="M2552 4488 c-16 -16 -16 -130 0 -146 7 -7 39 -12 75 -12 51 0 64 3
73 19 14 27 13 124 -2 139 -16 16 -130 16 -146 0z"/>
<path d="M2762 4488 c-16 -16 -15 -119 2 -140 20 -27 131 -26 146 1 14 27 13
124 -2 139 -16 16 -130 16 -146 0z"/>
<path d="M5312 4488 c-16 -16 -15 -119 2 -140 20 -27 131 -26 146 1 14 27 13
124 -2 139 -16 16 -130 16 -146 0z"/>
<path d="M5742 4488 c-7 -7 -12 -39 -12 -73 0 -34 5 -66 12 -73 20 -20 122
-15 141 6 22 24 23 117 3 138 -18 17 -127 19 -144 2z"/>
<path d="M5952 4488 c-17 -17 -15 -126 2 -144 22 -21 125 -19 142 4 17 21 18
124 2 140 -16 16 -130 16 -146 0z"/>
<path d="M7012 4488 c-16 -16 -15 -119 2 -140 10 -14 28 -18 71 -18 43 0 61 4
71 18 17 21 18 124 2 140 -16 16 -130 16 -146 0z"/>
<path d="M7862 4488 c-16 -16 -15 -119 2 -140 20 -27 131 -26 146 1 14 27 13
124 -2 139 -16 16 -130 16 -146 0z"/>
<path d="M852 4278 c-7 -7 -12 -39 -12 -73 0 -34 5 -66 12 -73 7 -7 39 -12 73
-12 34 0 66 5 73 12 16 16 16 130 0 146 -16 16 -130 16 -146 0z"/>
<path d="M1062 4278 c-7 -7 -12 -39 -12 -73 0 -34 5 -66 12 -73 7 -7 39 -12
73 -12 34 0 66 5 73 12 16 16 16 130 0 146 -16 16 -130 16 -146 0z"/>
<path d="M2342 4278 c-7 -7 -12 -39 -12 -73 0 -34 5 -66 12 -73 15 -15 112
-16 139 -2 16 9 19 22 19 73 0 36 -5 68 -12 75 -16 16 -130 16 -146 0z"/>
<path d="M2552 4278 c-16 -16 -16 -130 0 -146 7 -7 39 -12 73 -12 34 0 66 5
73 12 7 7 12 39 12 73 0 34 -5 66 -12 73 -16 16 -130 16 -146 0z"/>
<path d="M5522 4278 c-7 -7 -12 -39 -12 -75 0 -51 3 -64 19 -73 27 -14 124
-13 139 2 7 7 12 39 12 73 0 34 -5 66 -12 73 -16 16 -130 16 -146 0z"/>
<path d="M6802 4278 c-7 -7 -12 -39 -12 -73 0 -34 5 -66 12 -73 7 -7 39 -12
73 -12 34 0 66 5 73 12 7 7 12 39 12 73 0 34 -5 66 -12 73 -16 16 -130 16
-146 0z"/>
<path d="M7012 4278 c-7 -7 -12 -39 -12 -73 0 -34 5 -66 12 -73 7 -7 39 -12
73 -12 34 0 66 5 73 12 7 7 12 39 12 73 0 34 -5 66 -12 73 -16 16 -130 16
-146 0z"/>
<path d="M7862 4278 c-7 -7 -12 -39 -12 -73 0 -34 5 -66 12 -73 7 -7 39 -12
73 -12 34 0 66 5 73 12 7 7 12 39 12 73 0 34 -5 66 -12 73 -16 16 -130 16
-146 0z"/>
<path d="M1062 4068 c-7 -7 -12 -39 -12 -73 0 -34 5 -66 12 -73 7 -7 39 -12
73 -12 34 0 66 5 73 12 16 16 16 130 0 146 -16 16 -130 16 -146 0z"/>
<path d="M1492 4068 c-7 -7 -12 -39 -12 -73 0 -34 5 -66 12 -73 7 -7 39 -12
73 -12 34 0 66 5 73 12 7 7 12 39 12 73 0 34 -5 66 -12 73 -16 16 -130 16
-146 0z"/>
<path d="M2132 4068 c-5 -7 -12 -41 -14 -74 -3 -51 -1 -64 14 -73 24 -15 121
-14 136 1 7 7 12 39 12 73 0 34 -5 66 -12 73 -16 16 -123 16 -136 0z"/>
<path d="M2342 4068 c-7 -7 -12 -39 -12 -73 0 -34 5 -66 12 -73 7 -7 39 -12
73 -12 34 0 66 5 73 12 7 7 12 39 12 75 0 51 -3 64 -19 73 -27 14 -124 13
-139 -2z"/>
<path d="M2552 4068 c-16 -16 -16 -130 0 -146 7 -7 39 -12 73 -12 34 0 66 5
73 12 7 7 12 39 12 73 0 34 -5 66 -12 73 -16 16 -130 16 -146 0z"/>
<path d="M2762 4068 c-16 -16 -16 -130 0 -146 7 -7 39 -12 73 -12 34 0 66 5
73 12 7 7 12 39 12 73 0 34 -5 66 -12 73 -16 16 -130 16 -146 0z"/>
<path d="M5312 4068 c-7 -7 -12 -39 -12 -73 0 -34 5 -66 12 -73 7 -7 39 -12
73 -12 34 0 66 5 73 12 7 7 12 39 12 73 0 34 -5 66 -12 73 -16 16 -130 16
-146 0z"/>
<path d="M5742 4068 c-7 -7 -12 -39 -12 -73 0 -34 5 -66 12 -73 17 -17 126
-15 144 2 9 9 14 35 14 71 0 36 -5 62 -14 71 -18 17 -127 19 -144 2z"/>
<path d="M5952 4068 c-7 -7 -12 -39 -12 -73 0 -34 5 -66 12 -73 7 -7 39 -12
73 -12 34 0 66 5 73 12 7 7 12 39 12 73 0 34 -5 66 -12 73 -16 16 -130 16
-146 0z"/>
<path d="M6162 4068 c-7 -7 -12 -39 -12 -73 0 -34 5 -66 12 -73 7 -7 39 -12
73 -12 34 0 66 5 73 12 7 7 12 39 12 73 0 34 -5 66 -12 73 -16 16 -130 16
-146 0z"/>
<path d="M6372 4068 c-7 -7 -12 -39 -12 -73 0 -34 5 -66 12 -73 7 -7 39 -12
73 -12 34 0 66 5 73 12 7 7 12 39 12 73 0 34 -5 66 -12 73 -16 16 -130 16
-146 0z"/>
<path d="M6593 4068 c-6 -7 -13 -40 -16 -72 -7 -74 4 -85 85 -86 68 0 83 15
87 86 3 66 -16 84 -89 84 -34 0 -62 -5 -67 -12z"/>
<path d="M6802 4068 c-7 -7 -12 -39 -12 -73 0 -34 5 -66 12 -73 7 -7 39 -12
73 -12 34 0 66 5 73 12 7 7 12 39 12 73 0 34 -5 66 -12 73 -16 16 -130 16
-146 0z"/>
<path d="M7012 4068 c-7 -7 -12 -39 -12 -73 0 -34 5 -66 12 -73 7 -7 39 -12
73 -12 34 0 66 5 73 12 7 7 12 39 12 73 0 34 -5 66 -12 73 -16 16 -130 16
-146 0z"/>
<path d="M432 3857 c-17 -20 -18 -137 -1 -148 21 -13 125 -11 136 4 6 6 13 38
16 69 4 46 2 59 -12 72 -22 20 -124 22 -139 3z"/>
<path d="M642 3858 c-7 -7 -12 -39 -12 -73 0 -34 5 -66 12 -73 7 -7 39 -12 73
-12 34 0 66 5 73 12 16 16 16 130 0 146 -16 16 -130 16 -146 0z"/>
<path d="M1700 3851 c-14 -27 -13 -124 2 -139 7 -7 39 -12 73 -12 34 0 66 5
73 12 15 15 16 112 2 139 -9 16 -22 19 -75 19 -53 0 -66 -3 -75 -19z"/>
<path d="M2340 3851 c-14 -27 -13 -124 2 -139 7 -7 39 -12 73 -12 34 0 66 5
73 12 15 15 16 112 2 139 -9 16 -22 19 -75 19 -53 0 -66 -3 -75 -19z"/>
<path d="M5526 3854 c-19 -19 -22 -124 -4 -142 7 -7 39 -12 73 -12 34 0 66 5
73 12 7 7 12 39 12 73 0 34 -5 66 -12 73 -18 18 -123 15 -142 -4z"/>
<path d="M5742 3858 c-7 -7 -12 -39 -12 -73 0 -34 5 -66 12 -73 7 -7 39 -12
73 -12 34 0 66 5 73 12 20 20 15 122 -6 141 -22 20 -122 23 -140 5z"/>
<path d="M5950 3851 c-14 -27 -13 -124 2 -139 7 -7 39 -12 73 -12 34 0 66 5
73 12 7 7 12 38 12 69 0 76 -14 89 -90 89 -48 0 -61 -4 -70 -19z"/>
<path d="M6372 3850 c-15 -25 -16 -122 0 -138 7 -7 39 -12 73 -12 34 0 66 5
73 12 15 15 16 112 2 139 -9 16 -22 19 -73 19 -51 0 -64 -4 -75 -20z"/>
<path d="M7010 3851 c-14 -27 -13 -124 2 -139 7 -7 39 -12 73 -12 34 0 66 5
73 12 15 15 16 112 2 139 -9 16 -22 19 -75 19 -53 0 -66 -3 -75 -19z"/>
<path d="M7442 3858 c-7 -7 -12 -39 -12 -73 0 -34 5 -66 12 -73 13 -13 116
-16 135 -4 17 11 21 126 4 145 -16 20 -120 24 -139 5z"/>
<path d="M7652 3858 c-7 -7 -12 -39 -12 -73 0 -34 5 -66 12 -73 7 -7 39 -12
73 -12 34 0 66 5 73 12 15 15 16 112 2 139 -9 16 -22 19 -73 19 -36 0 -68 -5
-75 -12z"/>
<path d="M7860 3851 c-14 -27 -13 -124 2 -139 7 -7 39 -12 73 -12 34 0 66 5
73 12 15 15 16 112 2 139 -9 16 -22 19 -75 19 -53 0 -66 -3 -75 -19z"/>
<path d="M642 3638 c-7 -7 -12 -39 -12 -73 0 -34 5 -66 12 -73 20 -20 122 -15
141 6 20 22 23 122 5 140 -16 16 -130 16 -146 0z"/>
<path d="M852 3638 c-7 -7 -12 -39 -12 -73 0 -34 5 -66 12 -73 17 -17 126 -15
144 2 17 18 19 127 2 144 -16 16 -130 16 -146 0z"/>
<path d="M1062 3638 c-20 -20 -15 -122 6 -141 22 -20 122 -23 140 -5 16 16 16
130 0 146 -16 16 -130 16 -146 0z"/>
<path d="M1280 3640 c-17 -11 -16 -126 2 -147 15 -19 122 -17 138 2 16 20 20
115 6 138 -8 13 -24 17 -71 17 -33 0 -67 -5 -75 -10z"/>
<path d="M1492 3638 c-7 -7 -12 -39 -12 -73 0 -34 5 -66 12 -73 20 -20 122
-15 141 6 20 22 23 122 5 140 -16 16 -130 16 -146 0z"/>
<path d="M1702 3638 c-7 -7 -12 -39 -12 -73 0 -34 5 -66 12 -73 20 -20 128
-15 144 6 17 21 18 124 2 140 -16 16 -130 16 -146 0z"/>
<path d="M1912 3638 c-16 -16 -15 -119 2 -140 17 -23 120 -25 142 -4 17 18 19
127 2 144 -16 16 -130 16 -146 0z"/>
<path d="M5522 3638 c-20 -20 -15 -122 6 -141 22 -20 122 -23 140 -5 7 7 12
39 12 73 0 34 -5 66 -12 73 -16 16 -130 16 -146 0z"/>
<path d="M5952 3638 c-7 -7 -12 -39 -12 -73 0 -34 5 -66 12 -73 7 -7 39 -12
75 -12 51 0 64 3 73 19 14 27 13 124 -2 139 -16 16 -130 16 -146 0z"/>
<path d="M6162 3638 c-16 -16 -15 -119 2 -140 16 -21 124 -26 144 -6 7 7 12
39 12 73 0 34 -5 66 -12 73 -16 16 -130 16 -146 0z"/>
<path d="M6802 3638 c-7 -7 -12 -39 -12 -73 0 -34 5 -66 12 -73 17 -17 126
-15 144 2 17 18 19 127 2 144 -16 16 -130 16 -146 0z"/>
<path d="M7222 3638 c-16 -16 -15 -119 2 -140 16 -21 124 -26 144 -6 7 7 12
39 12 73 0 34 -5 66 -12 73 -16 16 -130 16 -146 0z"/>
<path d="M7862 3638 c-17 -17 -15 -126 2 -144 9 -9 35 -14 71 -14 36 0 62 5
71 14 17 18 19 127 2 144 -16 16 -130 16 -146 0z"/>
<path d="M1912 3428 c-7 -7 -12 -39 -12 -73 0 -34 5 -66 12 -73 7 -7 39 -12
73 -12 34 0 66 5 73 12 7 7 12 39 12 73 0 34 -5 66 -12 73 -16 16 -130 16
-146 0z"/>
<path d="M2762 3428 c-16 -16 -16 -130 0 -146 7 -7 39 -12 73 -12 34 0 66 5
73 12 7 7 12 39 12 73 0 34 -5 66 -12 73 -16 16 -130 16 -146 0z"/>
<path d="M5522 3428 c-7 -7 -12 -39 -12 -75 0 -51 3 -64 19 -73 27 -14 124
-13 139 2 7 7 12 39 12 73 0 34 -5 66 -12 73 -16 16 -130 16 -146 0z"/>
<path d="M5952 3428 c-7 -7 -12 -39 -12 -73 0 -34 5 -66 12 -73 7 -7 39 -12
73 -12 34 0 66 5 73 12 7 7 12 39 12 73 0 34 -5 66 -12 73 -16 16 -130 16
-146 0z"/>
<path d="M6162 3428 c-7 -7 -12 -39 -12 -73 0 -34 5 -66 12 -73 7 -7 39 -12
73 -12 34 0 66 5 73 12 7 7 12 39 12 73 0 34 -5 66 -12 73 -16 16 -130 16
-146 0z"/>
<path d="M6372 3428 c-17 -17 -15 -126 2 -144 18 -17 127 -19 144 -2 7 7 12
39 12 73 0 34 -5 66 -12 73 -16 16 -130 16 -146 0z"/>
<path d="M6802 3428 c-7 -7 -12 -39 -12 -73 0 -34 5 -66 12 -73 7 -7 39 -12
73 -12 34 0 66 5 73 12 7 7 12 39 12 73 0 34 -5 66 -12 73 -16 16 -130 16
-146 0z"/>
<path d="M7012 3428 c-7 -7 -12 -39 -12 -73 0 -34 5 -66 12 -73 7 -7 39 -12
73 -12 34 0 66 5 73 12 7 7 12 39 12 73 0 34 -5 66 -12 73 -16 16 -130 16
-146 0z"/>
<path d="M7222 3428 c-7 -7 -12 -39 -12 -73 0 -34 5 -66 12 -73 7 -7 39 -12
73 -12 34 0 66 5 73 12 7 7 12 39 12 73 0 34 -5 66 -12 73 -16 16 -130 16
-146 0z"/>
<path d="M7438 3426 c-23 -17 -24 -102 -2 -134 13 -18 24 -22 72 -22 31 0 63
4 71 9 9 6 16 33 19 72 4 52 2 65 -14 76 -23 17 -124 16 -146 -1z"/>
<path d="M7862 3428 c-7 -7 -12 -39 -12 -73 0 -34 5 -66 12 -73 7 -7 39 -12
73 -12 34 0 66 5 73 12 7 7 12 39 12 73 0 34 -5 66 -12 73 -16 16 -130 16
-146 0z"/>
<path d="M431 3221 c-8 -5 -15 -33 -18 -65 -7 -78 10 -96 87 -96 73 0 92 18
89 84 -4 71 -19 86 -87 86 -31 0 -63 -4 -71 -9z"/>
<path d="M1279 3214 c-15 -18 -13 -122 3 -141 13 -17 118 -16 138 0 19 15 20
118 1 141 -19 22 -123 22 -142 0z"/>
<path d="M1492 3218 c-7 -7 -12 -39 -12 -73 0 -34 5 -66 12 -73 7 -7 39 -12
73 -12 34 0 66 5 73 12 7 7 12 39 12 73 0 34 -5 66 -12 73 -16 16 -130 16
-146 0z"/>
<path d="M1702 3218 c-7 -7 -12 -39 -12 -73 0 -34 5 -66 12 -73 7 -7 39 -12
73 -12 34 0 66 5 73 12 7 7 12 39 12 73 0 34 -5 66 -12 73 -16 16 -130 16
-146 0z"/>
<path d="M1912 3218 c-7 -7 -12 -39 -12 -73 0 -34 5 -66 12 -73 7 -7 39 -12
73 -12 34 0 66 5 73 12 7 7 12 39 12 73 0 34 -5 66 -12 73 -16 16 -130 16
-146 0z"/>
<path d="M2128 3213 c-19 -23 -23 -106 -6 -132 11 -18 23 -21 73 -21 34 0 66
5 73 12 7 7 12 39 12 73 0 34 -5 66 -12 73 -19 19 -122 15 -140 -5z"/>
<path d="M2342 3218 c-7 -7 -12 -39 -12 -73 0 -34 5 -66 12 -73 7 -7 39 -12
73 -12 34 0 66 5 73 12 7 7 12 39 12 73 0 34 -5 66 -12 73 -16 16 -130 16
-146 0z"/>
<path d="M2552 3218 c-16 -16 -16 -130 0 -146 7 -7 39 -12 73 -12 34 0 66 5
73 12 7 7 12 39 12 73 0 34 -5 66 -12 73 -16 16 -130 16 -146 0z"/>
<path d="M2762 3218 c-16 -16 -16 -130 0 -146 7 -7 39 -12 73 -12 34 0 66 5
73 12 7 7 12 39 12 73 0 34 -5 66 -12 73 -16 16 -130 16 -146 0z"/>
<path d="M3192 3218 c-16 -16 -16 -130 0 -146 15 -15 112 -16 139 -2 16 9 19
22 19 75 0 53 -3 66 -19 75 -27 14 -124 13 -139 -2z"/>
<path d="M3402 3218 c-16 -16 -16 -130 0 -146 7 -7 39 -12 73 -12 34 0 66 5
73 12 7 7 12 39 12 73 0 34 -5 66 -12 73 -16 16 -130 16 -146 0z"/>
<path d="M3828 3216 c-21 -16 -26 -124 -6 -144 7 -7 39 -12 73 -12 34 0 66 5
73 12 7 7 12 39 12 73 0 34 -5 66 -12 73 -16 16 -119 15 -140 -2z"/>
<path d="M4252 3218 c-16 -16 -16 -130 0 -146 7 -7 39 -12 73 -12 34 0 66 5
73 12 7 7 12 39 12 73 0 34 -5 66 -12 73 -16 16 -130 16 -146 0z"/>
<path d="M4462 3218 c-16 -16 -16 -130 0 -146 7 -7 39 -12 73 -12 34 0 66 5
73 12 7 7 12 39 12 73 0 34 -5 66 -12 73 -16 16 -130 16 -146 0z"/>
<path d="M4678 3219 c-27 -15 -26 -134 1 -149 27 -14 124 -13 139 2 7 7 12 39
12 73 0 34 -5 66 -12 73 -15 15 -116 15 -140 1z"/>
<path d="M4892 3218 c-16 -16 -16 -130 0 -146 17 -17 126 -15 144 2 9 10 14
36 14 75 0 49 -3 62 -19 71 -27 14 -124 13 -139 -2z"/>
<path d="M5102 3218 c-16 -16 -16 -130 0 -146 7 -7 39 -12 73 -12 34 0 66 5
73 12 7 7 12 39 12 73 0 34 -5 66 -12 73 -16 16 -130 16 -146 0z"/>
<path d="M5522 3218 c-7 -7 -12 -39 -12 -75 0 -51 3 -64 19 -73 27 -14 124
-13 139 2 7 7 12 39 12 73 0 34 -5 66 -12 73 -16 16 -130 16 -146 0z"/>
<path d="M5952 3218 c-7 -7 -12 -39 -12 -73 0 -34 5 -66 12 -73 7 -7 39 -12
73 -12 34 0 66 5 73 12 7 7 12 39 12 73 0 34 -5 66 -12 73 -16 16 -130 16
-146 0z"/>
<path d="M6162 3218 c-7 -7 -12 -39 -12 -73 0 -34 5 -66 12 -73 7 -7 39 -12
73 -12 34 0 66 5 73 12 7 7 12 39 12 73 0 34 -5 66 -12 73 -16 16 -130 16
-146 0z"/>
<path d="M6802 3218 c-7 -7 -12 -39 -12 -73 0 -34 5 -66 12 -73 7 -7 39 -12
73 -12 34 0 66 5 73 12 7 7 12 39 12 73 0 34 -5 66 -12 73 -16 16 -130 16
-146 0z"/>
<path d="M7012 3218 c-7 -7 -12 -39 -12 -73 0 -34 5 -66 12 -73 7 -7 39 -12
73 -12 34 0 66 5 73 12 7 7 12 39 12 73 0 34 -5 66 -12 73 -16 16 -130 16
-146 0z"/>
<path d="M7862 3218 c-7 -7 -12 -39 -12 -73 0 -34 5 -66 12 -73 7 -7 39 -12
73 -12 34 0 66 5 73 12 7 7 12 39 12 73 0 34 -5 66 -12 73 -16 16 -130 16
-146 0z"/>
<path d="M216 3004 c-19 -19 -22 -124 -4 -142 7 -7 39 -12 73 -12 34 0 66 5
73 12 16 16 16 130 0 146 -18 18 -123 15 -142 -4z"/>
<path d="M426 2998 c-18 -29 -14 -126 5 -139 8 -5 40 -9 71 -9 70 0 86 17 83
90 -3 68 -15 80 -86 80 -50 0 -61 -3 -73 -22z"/>
<path d="M642 3008 c-7 -7 -12 -39 -12 -73 0 -34 5 -66 12 -73 7 -7 39 -12 73
-12 34 0 66 5 73 12 18 18 15 123 -4 142 -19 19 -124 22 -142 4z"/>
<path d="M850 3001 c-14 -27 -13 -124 2 -139 7 -7 39 -12 73 -12 34 0 66 5 73
12 16 16 16 130 0 146 -7 7 -39 12 -75 12 -51 0 -64 -3 -73 -19z"/>
<path d="M1700 3001 c-14 -27 -13 -124 2 -139 7 -7 39 -12 73 -12 34 0 66 5
73 12 15 15 16 112 2 139 -9 16 -22 19 -75 19 -53 0 -66 -3 -75 -19z"/>
<path d="M2131 3007 c-15 -19 -23 -115 -11 -138 9 -16 22 -19 73 -19 36 0 68
5 75 12 7 7 12 39 12 73 0 34 -5 66 -12 73 -17 17 -123 16 -137 -1z"/>
<path d="M2342 3008 c-7 -7 -12 -39 -12 -73 0 -34 5 -66 12 -73 7 -7 39 -12
73 -12 34 0 66 5 73 12 18 18 15 123 -4 142 -19 19 -124 22 -142 4z"/>
<path d="M2760 3001 c-14 -27 -13 -124 2 -139 7 -7 39 -12 73 -12 34 0 66 5
73 12 7 7 12 39 12 73 0 34 -5 66 -12 73 -7 7 -39 12 -75 12 -51 0 -64 -3 -73
-19z"/>
<path d="M2977 3002 c-20 -22 -23 -122 -5 -140 7 -7 39 -12 73 -12 34 0 66 5
73 12 7 7 12 39 12 73 0 34 -5 66 -12 73 -20 20 -122 15 -141 -6z"/>
<path d="M3192 3008 c-16 -16 -16 -130 0 -146 15 -15 112 -16 139 -2 27 15 28
119 1 143 -22 20 -122 23 -140 5z"/>
<path d="M4042 3008 c-16 -16 -16 -130 0 -146 15 -15 112 -16 139 -2 27 15 28
119 1 143 -22 20 -122 23 -140 5z"/>
<path d="M4252 3008 c-16 -16 -16 -130 0 -146 7 -7 39 -12 73 -12 34 0 66 5
73 12 15 15 16 112 2 139 -9 16 -22 19 -73 19 -36 0 -68 -5 -75 -12z"/>
<path d="M4892 3008 c-16 -16 -16 -130 0 -146 7 -7 39 -12 73 -12 34 0 66 5
73 12 20 20 15 122 -6 141 -22 20 -122 23 -140 5z"/>
<path d="M5310 3001 c-14 -27 -13 -124 2 -139 7 -7 39 -12 73 -12 34 0 66 5
73 12 7 7 12 39 12 73 0 34 -5 66 -12 73 -7 7 -39 12 -75 12 -51 0 -64 -3 -73
-19z"/>
<path d="M5742 3008 c-7 -7 -12 -39 -12 -73 0 -34 5 -66 12 -73 7 -7 39 -12
73 -12 34 0 66 5 73 12 20 20 15 122 -6 141 -22 20 -122 23 -140 5z"/>
<path d="M6160 3001 c-14 -27 -13 -124 2 -139 7 -7 39 -12 73 -12 34 0 66 5
73 12 7 7 12 39 12 73 0 34 -5 66 -12 73 -7 7 -39 12 -75 12 -51 0 -64 -3 -73
-19z"/>
<path d="M6589 3003 c-19 -23 -19 -124 1 -140 21 -17 125 -17 142 1 17 17 16
120 -2 141 -18 22 -123 21 -141 -2z"/>
<path d="M7226 3004 c-19 -19 -22 -124 -4 -142 7 -7 39 -12 73 -12 34 0 66 5
73 12 7 7 12 39 12 73 0 34 -5 66 -12 73 -18 18 -123 15 -142 -4z"/>
<path d="M7439 3004 c-21 -25 -21 -125 0 -141 23 -17 126 -17 144 1 18 18 16
118 -2 140 -19 23 -123 22 -142 0z"/>
<path d="M212 2788 c-16 -16 -15 -119 2 -140 16 -21 124 -26 144 -6 16 16 16
130 0 146 -16 16 -130 16 -146 0z"/>
<path d="M427 2789 c-14 -8 -18 -22 -16 -65 3 -79 17 -94 89 -94 71 0 85 15
89 91 2 39 -2 54 -16 65 -21 16 -120 18 -146 3z"/>
<path d="M852 2788 c-7 -7 -12 -39 -12 -73 0 -34 5 -66 12 -73 7 -7 39 -12 73
-12 34 0 66 5 73 12 16 16 16 130 0 146 -16 16 -130 16 -146 0z"/>
<path d="M1492 2788 c-7 -7 -12 -39 -12 -73 0 -34 5 -66 12 -73 20 -20 128
-15 144 6 17 21 18 124 2 140 -16 16 -130 16 -146 0z"/>
<path d="M1912 2788 c-16 -16 -15 -119 2 -140 20 -27 131 -26 146 1 14 27 13
124 -2 139 -16 16 -130 16 -146 0z"/>
<path d="M2126 2792 c-11 -19 -9 -132 4 -147 15 -18 120 -21 138 -3 7 7 12 39
12 73 0 34 -5 66 -12 73 -13 13 -134 17 -142 4z"/>
<path d="M2342 2788 c-7 -7 -12 -39 -12 -73 0 -34 5 -66 12 -73 20 -20 122
-15 141 6 20 22 23 122 5 140 -16 16 -130 16 -146 0z"/>
<path d="M2762 2788 c-16 -16 -15 -119 2 -140 16 -21 124 -26 144 -6 7 7 12
39 12 73 0 34 -5 66 -12 73 -16 16 -130 16 -146 0z"/>
<path d="M2972 2788 c-20 -20 -15 -122 6 -141 22 -20 122 -23 140 -5 7 7 12
39 12 73 0 34 -5 66 -12 73 -16 16 -130 16 -146 0z"/>
<path d="M3192 2788 c-16 -16 -16 -130 0 -146 20 -20 122 -15 141 6 20 22 23
122 5 140 -16 16 -130 16 -146 0z"/>
<path d="M3402 2788 c-16 -16 -16 -130 0 -146 20 -20 128 -15 144 6 17 21 18
124 2 140 -16 16 -130 16 -146 0z"/>
<path d="M3822 2788 c-20 -20 -15 -122 6 -141 22 -20 122 -23 140 -5 7 7 12
39 12 73 0 34 -5 66 -12 73 -16 16 -130 16 -146 0z"/>
<path d="M4892 2788 c-16 -16 -16 -130 0 -146 20 -20 122 -15 141 6 20 22 23
122 5 140 -16 16 -130 16 -146 0z"/>
<path d="M5736 2784 c-11 -28 -6 -130 6 -142 20 -20 122 -15 141 6 20 22 23
122 5 140 -7 7 -40 12 -79 12 -52 0 -68 -4 -73 -16z"/>
<path d="M6162 2788 c-17 -17 -15 -126 2 -144 18 -17 127 -19 144 -2 7 7 12
39 12 73 0 34 -5 66 -12 73 -16 16 -130 16 -146 0z"/>
<path d="M6372 2788 c-16 -16 -15 -119 2 -140 16 -21 124 -26 144 -6 7 7 12
39 12 73 0 34 -5 66 -12 73 -16 16 -130 16 -146 0z"/>
<path d="M6591 2791 c-17 -11 -18 -125 -1 -146 8 -10 31 -15 71 -15 48 0 60 4
73 22 21 30 21 112 0 132 -17 18 -118 22 -143 7z"/>
<path d="M6802 2788 c-17 -17 -15 -126 2 -144 22 -22 119 -19 139 4 20 22 23
122 5 140 -16 16 -130 16 -146 0z"/>
<path d="M7012 2788 c-16 -16 -15 -119 2 -140 17 -23 120 -25 142 -4 17 18 19
127 2 144 -16 16 -130 16 -146 0z"/>
<path d="M7442 2788 c-7 -7 -12 -39 -12 -73 0 -34 5 -66 12 -73 18 -18 123
-15 139 4 18 21 16 133 -2 145 -21 13 -123 11 -137 -3z"/>
<path d="M7652 2788 c-7 -7 -12 -39 -12 -73 0 -34 5 -66 12 -73 20 -20 128
-15 144 6 17 21 18 124 2 140 -16 16 -130 16 -146 0z"/>
<path d="M7862 2788 c-15 -15 -16 -112 -2 -139 15 -27 126 -28 146 -1 17 21
18 124 2 140 -16 16 -130 16 -146 0z"/>
<path d="M212 2578 c-16 -16 -16 -130 0 -146 7 -7 39 -12 73 -12 34 0 66 5 73
12 16 16 16 130 0 146 -16 16 -130 16 -146 0z"/>
<path d="M642 2578 c-7 -7 -12 -39 -12 -73 0 -34 5 -66 12 -73 7 -7 39 -12 73
-12 34 0 66 5 73 12 16 16 16 130 0 146 -16 16 -130 16 -146 0z"/>
<path d="M1912 2578 c-7 -7 -12 -39 -12 -73 0 -34 5 -66 12 -73 7 -7 39 -12
73 -12 34 0 66 5 73 12 7 7 12 39 12 73 0 34 -5 66 -12 73 -16 16 -130 16
-146 0z"/>
<path d="M2342 2578 c-7 -7 -12 -39 -12 -73 0 -34 5 -66 12 -73 15 -15 112
-16 139 -2 16 9 19 22 19 73 0 36 -5 68 -12 75 -16 16 -130 16 -146 0z"/>
<path d="M2552 2578 c-16 -16 -16 -130 0 -146 7 -7 39 -12 73 -12 34 0 66 5
73 12 7 7 12 39 12 73 0 34 -5 66 -12 73 -16 16 -130 16 -146 0z"/>
<path d="M3192 2578 c-16 -16 -16 -130 0 -146 15 -15 112 -16 139 -2 16 9 19
22 19 75 0 53 -3 66 -19 75 -27 14 -124 13 -139 -2z"/>
<path d="M3612 2578 c-16 -16 -16 -130 0 -146 7 -7 39 -12 73 -12 34 0 66 5
73 12 7 7 12 39 12 73 0 34 -5 66 -12 73 -16 16 -130 16 -146 0z"/>
<path d="M4252 2578 c-16 -16 -16 -130 0 -146 7 -7 39 -12 73 -12 34 0 66 5
73 12 7 7 12 39 12 73 0 34 -5 66 -12 73 -16 16 -130 16 -146 0z"/>
<path d="M4892 2578 c-16 -16 -16 -130 0 -146 16 -16 119 -15 141 2 20 16 25
124 5 144 -16 16 -130 16 -146 0z"/>
<path d="M5312 2578 c-7 -7 -12 -39 -12 -73 0 -34 5 -66 12 -73 7 -7 39 -12
73 -12 34 0 66 5 73 12 7 7 12 39 12 73 0 34 -5 66 -12 73 -16 16 -130 16
-146 0z"/>
<path d="M5952 2578 c-7 -7 -12 -39 -12 -73 0 -34 5 -66 12 -73 7 -7 39 -12
73 -12 34 0 66 5 73 12 7 7 12 39 12 73 0 34 -5 66 -12 73 -16 16 -130 16
-146 0z"/>
<path d="M6372 2578 c-7 -7 -12 -39 -12 -73 0 -34 5 -66 12 -73 7 -7 39 -12
73 -12 34 0 66 5 73 12 7 7 12 39 12 73 0 34 -5 66 -12 73 -16 16 -130 16
-146 0z"/>
<path d="M6802 2578 c-7 -7 -12 -39 -12 -73 0 -34 5 -66 12 -73 7 -7 39 -12
73 -12 34 0 66 5 73 12 7 7 12 39 12 73 0 34 -5 66 -12 73 -16 16 -130 16
-146 0z"/>
<path d="M7440 2575 c-7 -9 -15 -38 -18 -66 -7 -70 12 -89 88 -89 34 0 62 5
68 13 6 7 12 41 14 75 4 75 -3 82 -83 82 -39 0 -61 -5 -69 -15z"/>
<path d="M7862 2578 c-7 -7 -12 -39 -12 -73 0 -34 5 -66 12 -73 7 -7 39 -12
73 -12 34 0 66 5 73 12 7 7 12 39 12 73 0 34 -5 66 -12 73 -16 16 -130 16
-146 0z"/>
<path d="M212 2368 c-16 -16 -16 -130 0 -146 7 -7 39 -12 73 -12 34 0 66 5 73
12 16 16 16 130 0 146 -7 7 -39 12 -73 12 -34 0 -66 -5 -73 -12z"/>
<path d="M852 2368 c-7 -7 -12 -39 -12 -73 0 -34 5 -66 12 -73 7 -7 39 -12 73
-12 34 0 66 5 73 12 16 16 16 130 0 146 -16 16 -130 16 -146 0z"/>
<path d="M1062 2368 c-7 -7 -12 -39 -12 -73 0 -34 5 -66 12 -73 7 -7 39 -12
73 -12 34 0 66 5 73 12 16 16 16 130 0 146 -16 16 -130 16 -146 0z"/>
<path d="M1280 2364 c-19 -21 -20 -123 -2 -140 21 -21 125 -19 143 4 18 21 18
114 -1 137 -18 21 -123 21 -140 -1z"/>
<path d="M1492 2368 c-7 -7 -12 -39 -12 -73 0 -34 5 -66 12 -73 7 -7 39 -12
73 -12 34 0 66 5 73 12 7 7 12 39 12 73 0 34 -5 66 -12 73 -16 16 -130 16
-146 0z"/>
<path d="M1702 2368 c-7 -7 -12 -39 -12 -73 0 -34 5 -66 12 -73 7 -7 39 -12
73 -12 34 0 66 5 73 12 7 7 12 39 12 73 0 34 -5 66 -12 73 -16 16 -130 16
-146 0z"/>
<path d="M2552 2368 c-16 -16 -16 -130 0 -146 7 -7 39 -12 73 -12 34 0 66 5
73 12 7 7 12 39 12 73 0 34 -5 66 -12 73 -7 7 -39 12 -73 12 -34 0 -66 -5 -73
-12z"/>
<path d="M2762 2368 c-16 -16 -16 -130 0 -146 7 -7 39 -12 73 -12 34 0 66 5
73 12 7 7 12 39 12 73 0 34 -5 66 -12 73 -7 7 -39 12 -73 12 -34 0 -66 -5 -73
-12z"/>
<path d="M3192 2368 c-16 -16 -16 -130 0 -146 15 -15 112 -16 139 -2 16 9 19
22 19 75 0 53 -3 66 -19 75 -27 14 -124 13 -139 -2z"/>
<path d="M3402 2368 c-16 -16 -16 -130 0 -146 7 -7 39 -12 73 -12 34 0 66 5
73 12 7 7 12 39 12 73 0 34 -5 66 -12 73 -7 7 -39 12 -73 12 -34 0 -66 -5 -73
-12z"/>
<path d="M3612 2368 c-16 -16 -16 -130 0 -146 7 -7 39 -12 73 -12 34 0 66 5
73 12 7 7 12 39 12 73 0 34 -5 66 -12 73 -7 7 -39 12 -73 12 -34 0 -66 -5 -73
-12z"/>
<path d="M4042 2368 c-16 -16 -16 -130 0 -146 15 -15 112 -16 139 -2 16 9 19
22 19 75 0 53 -3 66 -19 75 -27 14 -124 13 -139 -2z"/>
<path d="M4252 2368 c-16 -16 -16 -130 0 -146 7 -7 39 -12 73 -12 34 0 66 5
73 12 7 7 12 39 12 73 0 34 -5 66 -12 73 -7 7 -39 12 -73 12 -34 0 -66 -5 -73
-12z"/>
<path d="M4462 2368 c-16 -16 -16 -130 0 -146 7 -7 39 -12 73 -12 34 0 66 5
73 12 7 7 12 39 12 73 0 34 -5 66 -12 73 -7 7 -39 12 -73 12 -34 0 -66 -5 -73
-12z"/>
<path d="M5102 2368 c-16 -16 -16 -130 0 -146 7 -7 39 -12 73 -12 34 0 66 5
73 12 7 7 12 39 12 73 0 34 -5 66 -12 73 -7 7 -39 12 -73 12 -34 0 -66 -5 -73
-12z"/>
<path d="M5312 2368 c-7 -7 -12 -39 -12 -73 0 -34 5 -66 12 -73 7 -7 39 -12
73 -12 34 0 66 5 73 12 7 7 12 39 12 73 0 34 -5 66 -12 73 -7 7 -39 12 -73 12
-34 0 -66 -5 -73 -12z"/>
<path d="M5528 2369 c-14 -8 -18 -24 -18 -72 0 -36 5 -68 12 -75 7 -7 39 -12
73 -12 34 0 66 5 73 12 7 7 12 39 12 73 0 34 -5 66 -12 73 -15 15 -116 15
-140 1z"/>
<path d="M6162 2368 c-7 -7 -12 -39 -12 -73 0 -34 5 -66 12 -73 7 -7 39 -12
73 -12 34 0 66 5 73 12 7 7 12 39 12 73 0 34 -5 66 -12 73 -7 7 -39 12 -73 12
-34 0 -66 -5 -73 -12z"/>
<path d="M6372 2368 c-7 -7 -12 -39 -12 -73 0 -34 5 -66 12 -73 7 -7 39 -12
73 -12 34 0 66 5 73 12 7 7 12 39 12 73 0 34 -5 66 -12 73 -7 7 -39 12 -73 12
-34 0 -66 -5 -73 -12z"/>
<path d="M6589 2363 c-20 -23 -19 -125 1 -140 17 -14 118 -17 139 -4 17 11 18
125 1 146 -18 22 -123 21 -141 -2z"/>
<path d="M6802 2368 c-7 -7 -12 -39 -12 -73 0 -34 5 -66 12 -73 7 -7 39 -12
73 -12 34 0 66 5 73 12 7 7 12 39 12 73 0 34 -5 66 -12 73 -7 7 -39 12 -73 12
-34 0 -66 -5 -73 -12z"/>
<path d="M7012 2368 c-7 -7 -12 -39 -12 -73 0 -34 5 -66 12 -73 7 -7 39 -12
73 -12 34 0 66 5 73 12 7 7 12 39 12 73 0 34 -5 66 -12 73 -7 7 -39 12 -73 12
-34 0 -66 -5 -73 -12z"/>
<path d="M7442 2368 c-6 -7 -12 -39 -15 -70 -6 -73 8 -88 84 -88 30 0 60 4 68
9 20 13 23 128 4 147 -18 18 -126 19 -141 2z"/>
<path d="M7652 2368 c-7 -7 -12 -39 -12 -73 0 -34 5 -66 12 -73 7 -7 39 -12
73 -12 34 0 66 5 73 12 7 7 12 39 12 73 0 34 -5 66 -12 73 -7 7 -39 12 -73 12
-34 0 -66 -5 -73 -12z"/>
<path d="M7862 2368 c-7 -7 -12 -39 -12 -73 0 -34 5 -66 12 -73 7 -7 39 -12
73 -12 34 0 66 5 73 12 7 7 12 39 12 73 0 34 -5 66 -12 73 -7 7 -39 12 -73 12
-34 0 -66 -5 -73 -12z"/>
<path d="M1912 2158 c-7 -7 -12 -39 -12 -73 0 -34 5 -66 12 -73 7 -7 39 -12
73 -12 34 0 66 5 73 12 7 7 12 39 12 73 0 34 -5 66 -12 73 -16 16 -130 16
-146 0z"/>
<path d="M2126 2148 c-18 -25 -21 -100 -6 -129 9 -16 22 -19 73 -19 36 0 68 5
75 12 7 7 12 39 12 73 0 34 -5 66 -12 73 -7 7 -38 12 -69 12 -48 0 -60 -4 -73
-22z"/>
<path d="M2342 2158 c-7 -7 -12 -39 -12 -73 0 -34 5 -66 12 -73 7 -7 39 -12
73 -12 34 0 66 5 73 12 7 7 12 39 12 73 0 34 -5 66 -12 73 -16 16 -130 16
-146 0z"/>
<path d="M2978 2156 c-27 -20 -26 -131 1 -146 27 -14 124 -13 139 2 7 7 12 39
12 73 0 34 -5 66 -12 73 -16 16 -119 15 -140 -2z"/>
<path d="M3192 2158 c-16 -16 -16 -130 0 -146 7 -7 39 -12 73 -12 34 0 66 5
73 12 7 7 12 39 12 75 0 51 -3 64 -19 73 -27 14 -124 13 -139 -2z"/>
<path d="M3402 2158 c-16 -16 -16 -130 0 -146 7 -7 39 -12 73 -12 34 0 66 5
73 12 7 7 12 39 12 73 0 34 -5 66 -12 73 -7 7 -39 12 -73 12 -34 0 -66 -5 -73
-12z"/>
<path d="M3828 2156 c-21 -16 -26 -124 -6 -144 7 -7 39 -12 73 -12 34 0 66 5
73 12 7 7 12 39 12 73 0 34 -5 66 -12 73 -16 16 -119 15 -140 -2z"/>
<path d="M4462 2158 c-16 -16 -16 -130 0 -146 7 -7 39 -12 73 -12 34 0 66 5
73 12 7 7 12 39 12 73 0 34 -5 66 -12 73 -7 7 -39 12 -73 12 -34 0 -66 -5 -73
-12z"/>
<path d="M4677 2152 c-26 -28 -24 -128 2 -142 27 -14 124 -13 139 2 7 7 12 39
12 73 0 34 -5 66 -12 73 -20 20 -122 15 -141 -6z"/>
<path d="M5102 2158 c-16 -16 -16 -130 0 -146 7 -7 39 -12 73 -12 34 0 66 5
73 12 7 7 12 39 12 73 0 34 -5 66 -12 73 -7 7 -39 12 -73 12 -34 0 -66 -5 -73
-12z"/>
<path d="M6162 2158 c-7 -7 -12 -39 -12 -73 0 -34 5 -66 12 -73 7 -7 39 -12
73 -12 34 0 66 5 73 12 7 7 12 39 12 73 0 34 -5 66 -12 73 -7 7 -39 12 -73 12
-34 0 -66 -5 -73 -12z"/>
<path d="M7012 2158 c-7 -7 -12 -39 -12 -73 0 -34 5 -66 12 -73 7 -7 39 -12
73 -12 34 0 66 5 73 12 7 7 12 39 12 73 0 34 -5 66 -12 73 -7 7 -39 12 -73 12
-34 0 -66 -5 -73 -12z"/>
<path d="M7434 2145 c-20 -30 -16 -114 6 -132 18 -14 118 -17 139 -4 22 14 26
106 7 137 -14 21 -24 24 -76 24 -52 0 -62 -3 -76 -25z"/>
<path d="M7652 2158 c-7 -7 -12 -39 -12 -73 0 -34 5 -66 12 -73 7 -7 39 -12
73 -12 34 0 66 5 73 12 17 17 15 126 -2 144 -18 17 -127 19 -144 2z"/>
<path d="M7862 2158 c-7 -7 -12 -39 -12 -73 0 -34 5 -66 12 -73 7 -7 39 -12
73 -12 34 0 66 5 73 12 7 7 12 39 12 73 0 34 -5 66 -12 73 -7 7 -39 12 -73 12
-34 0 -66 -5 -73 -12z"/>
<path d="M239 1977 c-18 -12 -44 -38 -56 -56 l-23 -34 0 -631 c0 -697 -2 -672
63 -720 28 -21 39 -21 668 -24 683 -3 658 -4 714 45 45 40 45 41 45 702 l0
628 -23 34 c-12 18 -38 44 -56 56 l-34 23 -632 0 -632 0 -34 -23z m1168 -215
l23 -23 0 -489 0 -489 -22 -21 c-21 -20 -33 -20 -505 -20 l-484 0 -24 25 -25
24 0 482 0 483 24 25 25 26 483 0 483 0 22 -23z"/>
<path d="M615 1558 c-11 -6 -22 -12 -23 -14 -3 -2 -4 -495 -2 -565 0 -3 9 -15
21 -28 21 -22 23 -22 287 -20 146 1 273 4 282 6 35 9 40 47 40 323 0 257 -1
271 -20 290 -19 19 -33 20 -292 20 -182 -1 -280 -4 -293 -12z"/>
<path d="M1965 1953 c-56 -6 -65 -17 -65 -83 0 -70 10 -80 85 -84 73 -4 85 8
85 83 0 60 -19 93 -51 89 -8 -1 -32 -3 -54 -5z"/>
<path d="M2124 1935 c-8 -11 -14 -43 -14 -72 0 -65 21 -83 97 -83 41 0 54 4
63 19 14 28 13 130 -2 144 -7 7 -39 12 -72 12 -47 0 -61 -4 -72 -20z"/>
<path d="M2342 1939 c-15 -23 -16 -113 -2 -139 8 -16 20 -18 70 -16 33 2 66 9
75 16 19 16 21 123 2 138 -7 6 -40 13 -73 15 -51 4 -62 2 -72 -14z"/>
<path d="M2595 1953 c-46 -7 -55 -20 -55 -82 1 -81 15 -96 86 -87 32 4 64 12
71 18 18 15 17 122 -1 138 -17 14 -59 19 -101 13z"/>
<path d="M2982 1944 c-18 -13 -22 -25 -22 -73 0 -74 12 -85 92 -85 71 0 78 7
78 85 0 42 -5 60 -18 72 -24 22 -100 22 -130 1z"/>
<path d="M3401 1938 c-13 -22 -15 -113 -2 -137 13 -24 104 -28 137 -6 21 13
24 23 24 74 0 72 -10 82 -88 85 -48 2 -62 -1 -71 -16z"/>
<path d="M3885 1953 c-27 -3 -55 -9 -62 -15 -17 -14 -17 -122 0 -136 21 -18
136 -19 147 -2 25 38 4 164 -26 158 -5 -1 -31 -3 -59 -5z"/>
<path d="M4041 1938 c-17 -27 -14 -124 5 -142 23 -23 116 -22 137 2 22 24 23
124 3 142 -8 6 -42 13 -74 14 -48 2 -62 -1 -71 -16z"/>
<path d="M4251 1938 c-16 -26 -14 -124 3 -141 18 -17 119 -15 141 3 21 18 20
123 -1 141 -25 21 -130 18 -143 -3z"/>
<path d="M5107 1942 c-25 -27 -23 -123 2 -146 22 -20 101 -20 131 1 28 20 29
122 2 146 -26 24 -113 23 -135 -1z"/>
<path d="M5526 1941 c-11 -12 -16 -36 -16 -74 0 -46 4 -59 21 -71 27 -19 127
-15 140 5 13 21 10 122 -4 139 -19 23 -120 24 -141 1z"/>
<path d="M5743 1940 c-7 -11 -13 -44 -13 -74 0 -75 16 -90 88 -83 73 8 82 18
82 88 0 70 -15 85 -92 88 -44 1 -55 -2 -65 -19z"/>
<path d="M6164 1939 c-20 -22 -19 -122 2 -140 21 -17 134 -15 145 3 16 24 10
124 -7 139 -23 19 -122 18 -140 -2z"/>
<path d="M6589 1939 c-10 -10 -16 -36 -18 -68 -2 -68 17 -87 92 -90 73 -3 91
17 84 94 -2 31 -8 60 -13 65 -5 4 -36 10 -69 12 -46 3 -64 0 -76 -13z"/>
<path d="M7011 1938 c-17 -27 -14 -123 4 -138 8 -7 40 -12 70 -12 73 0 85 11
85 82 0 71 -11 82 -89 84 -47 1 -62 -3 -70 -16z"/>
<path d="M7895 1951 c-36 -6 -45 -22 -45 -80 0 -31 4 -61 8 -68 4 -6 35 -15
70 -19 55 -6 65 -4 77 12 18 24 20 128 3 142 -14 11 -83 19 -113 13z"/>
<path d="M1912 1728 c-7 -7 -12 -39 -12 -73 0 -34 5 -66 12 -73 7 -7 39 -12
73 -12 34 0 66 5 73 12 7 7 12 39 12 73 0 34 -5 66 -12 73 -16 16 -130 16
-146 0z"/>
<path d="M2124 1728 c-14 -23 -13 -112 2 -135 12 -20 23 -23 72 -23 32 0 63 5
70 12 7 7 12 39 12 73 0 34 -5 66 -12 73 -16 16 -134 16 -144 0z"/>
<path d="M2342 1728 c-7 -7 -12 -39 -12 -73 0 -34 5 -66 12 -73 7 -7 39 -12
73 -12 34 0 66 5 73 12 7 7 12 39 12 73 0 34 -5 66 -12 73 -16 16 -130 16
-146 0z"/>
<path d="M2978 1729 c-14 -8 -18 -23 -18 -71 0 -46 4 -64 18 -74 21 -17 124
-18 140 -2 7 7 12 39 12 73 0 34 -5 66 -12 73 -15 15 -116 15 -140 1z"/>
<path d="M3612 1728 c-16 -16 -16 -130 0 -146 7 -7 39 -12 73 -12 34 0 66 5
73 12 7 7 12 39 12 73 0 34 -5 66 -12 73 -7 7 -39 12 -73 12 -34 0 -66 -5 -73
-12z"/>
<path d="M4462 1728 c-16 -16 -16 -130 0 -146 7 -7 39 -12 73 -12 34 0 66 5
73 12 7 7 12 39 12 73 0 34 -5 66 -12 73 -7 7 -39 12 -73 12 -34 0 -66 -5 -73
-12z"/>
<path d="M4672 1728 c-7 -7 -12 -39 -12 -75 0 -51 3 -64 19 -73 27 -14 124
-13 139 2 7 7 12 39 12 73 0 34 -5 66 -12 73 -7 7 -39 12 -73 12 -34 0 -66 -5
-73 -12z"/>
<path d="M5102 1728 c-16 -16 -16 -130 0 -146 7 -7 39 -12 73 -12 34 0 66 5
73 12 7 7 12 39 12 73 0 34 -5 66 -12 73 -7 7 -39 12 -73 12 -34 0 -66 -5 -73
-12z"/>
<path d="M5522 1728 c-18 -18 -15 -123 4 -142 19 -19 124 -22 142 -4 7 7 12
39 12 73 0 34 -5 66 -12 73 -7 7 -39 12 -73 12 -34 0 -66 -5 -73 -12z"/>
<path d="M5952 1728 c-7 -7 -12 -39 -12 -73 0 -34 5 -66 12 -73 7 -7 39 -12
73 -12 34 0 66 5 73 12 7 7 12 39 12 73 0 34 -5 66 -12 73 -7 7 -39 12 -73 12
-34 0 -66 -5 -73 -12z"/>
<path d="M6162 1728 c-7 -7 -12 -39 -12 -73 0 -34 5 -66 12 -73 7 -7 39 -12
73 -12 34 0 66 5 73 12 7 7 12 39 12 73 0 34 -5 66 -12 73 -7 7 -39 12 -73 12
-34 0 -66 -5 -73 -12z"/>
<path d="M7012 1728 c-7 -7 -12 -39 -12 -73 0 -34 5 -66 12 -73 7 -7 39 -12
73 -12 34 0 66 5 73 12 7 7 12 39 12 73 0 34 -5 66 -12 73 -7 7 -39 12 -73 12
-34 0 -66 -5 -73 -12z"/>
<path d="M7652 1728 c-7 -7 -12 -39 -12 -73 0 -34 5 -66 12 -73 7 -7 39 -12
73 -12 34 0 66 5 73 12 7 7 12 39 12 73 0 34 -5 66 -12 73 -7 7 -39 12 -73 12
-34 0 -66 -5 -73 -12z"/>
<path d="M1912 1518 c-7 -7 -12 -39 -12 -73 0 -34 5 -66 12 -73 7 -7 39 -12
73 -12 34 0 66 5 73 12 7 7 12 39 12 73 0 34 -5 66 -12 73 -16 16 -130 16
-146 0z"/>
<path d="M2552 1518 c-16 -16 -16 -130 0 -146 7 -7 39 -12 73 -12 34 0 66 5
73 12 7 7 12 39 12 73 0 34 -5 66 -12 73 -7 7 -39 12 -73 12 -34 0 -66 -5 -73
-12z"/>
<path d="M2978 1516 c-27 -20 -26 -131 1 -146 27 -14 124 -13 139 2 7 7 12 39
12 73 0 34 -5 66 -12 73 -16 16 -119 15 -140 -2z"/>
<path d="M3402 1518 c-16 -16 -16 -130 0 -146 7 -7 39 -12 73 -12 34 0 66 5
73 12 7 7 12 39 12 73 0 34 -5 66 -12 73 -7 7 -39 12 -73 12 -34 0 -66 -5 -73
-12z"/>
<path d="M3612 1518 c-16 -16 -16 -130 0 -146 7 -7 39 -12 73 -12 34 0 66 5
73 12 7 7 12 39 12 73 0 34 -5 66 -12 73 -7 7 -39 12 -73 12 -34 0 -66 -5 -73
-12z"/>
<path d="M4042 1518 c-16 -16 -16 -130 0 -146 16 -16 119 -15 141 2 13 10 17
28 17 71 0 43 -4 61 -17 71 -22 17 -125 18 -141 2z"/>
<path d="M4252 1518 c-16 -16 -16 -130 0 -146 7 -7 39 -12 73 -12 34 0 66 5
73 12 7 7 12 39 12 73 0 34 -5 66 -12 73 -7 7 -39 12 -73 12 -34 0 -66 -5 -73
-12z"/>
<path d="M4462 1518 c-16 -16 -16 -130 0 -146 7 -7 39 -12 73 -12 34 0 66 5
73 12 7 7 12 39 12 73 0 34 -5 66 -12 73 -7 7 -39 12 -73 12 -34 0 -66 -5 -73
-12z"/>
<path d="M4678 1519 c-27 -15 -26 -134 1 -149 27 -14 124 -13 139 2 7 7 12 39
12 73 0 34 -5 66 -12 73 -15 15 -116 15 -140 1z"/>
<path d="M5102 1518 c-16 -16 -16 -130 0 -146 7 -7 39 -12 73 -12 34 0 66 5
73 12 7 7 12 39 12 73 0 34 -5 66 -12 73 -7 7 -39 12 -73 12 -34 0 -66 -5 -73
-12z"/>
<path d="M5312 1518 c-7 -7 -12 -39 -12 -73 0 -34 5 -66 12 -73 7 -7 39 -12
73 -12 34 0 66 5 73 12 7 7 12 39 12 73 0 34 -5 66 -12 73 -7 7 -39 12 -73 12
-34 0 -66 -5 -73 -12z"/>
<path d="M5522 1518 c-7 -7 -12 -39 -12 -73 0 -34 5 -66 12 -73 7 -7 39 -12
73 -12 34 0 66 5 73 12 7 7 12 39 12 73 0 34 -5 66 -12 73 -7 7 -39 12 -73 12
-34 0 -66 -5 -73 -12z"/>
<path d="M5952 1518 c-7 -7 -12 -39 -12 -73 0 -34 5 -66 12 -73 7 -7 39 -12
73 -12 34 0 66 5 73 12 7 7 12 39 12 73 0 34 -5 66 -12 73 -7 7 -39 12 -73 12
-34 0 -66 -5 -73 -12z"/>
<path d="M6162 1518 c-7 -7 -12 -39 -12 -73 0 -34 5 -66 12 -73 7 -7 39 -12
73 -12 34 0 66 5 73 12 7 7 12 39 12 73 0 34 -5 66 -12 73 -7 7 -39 12 -73 12
-34 0 -66 -5 -73 -12z"/>
<path d="M6372 1518 c-7 -7 -12 -39 -12 -73 0 -34 5 -66 12 -73 7 -7 39 -12
73 -12 34 0 66 5 73 12 7 7 12 39 12 73 0 34 -5 66 -12 73 -7 7 -39 12 -73 12
-34 0 -66 -5 -73 -12z"/>
<path d="M6590 1517 c-21 -17 -22 -128 -1 -144 9 -7 42 -13 73 -13 48 0 59 4
72 22 23 32 21 110 -2 131 -22 20 -119 23 -142 4z"/>
<path d="M6802 1518 c-7 -7 -12 -39 -12 -73 0 -34 5 -66 12 -73 7 -7 39 -12
73 -12 34 0 66 5 73 12 7 7 12 39 12 73 0 34 -5 66 -12 73 -7 7 -39 12 -73 12
-34 0 -66 -5 -73 -12z"/>
<path d="M7012 1518 c-7 -7 -12 -39 -12 -73 0 -34 5 -66 12 -73 7 -7 39 -12
73 -12 34 0 66 5 73 12 7 7 12 39 12 73 0 34 -5 66 -12 73 -7 7 -39 12 -73 12
-34 0 -66 -5 -73 -12z"/>
<path d="M7652 1518 c-7 -7 -12 -39 -12 -73 0 -34 5 -66 12 -73 7 -7 39 -12
73 -12 34 0 66 5 73 12 7 7 12 39 12 73 0 34 -5 66 -12 73 -7 7 -39 12 -73 12
-34 0 -66 -5 -73 -12z"/>
<path d="M7862 1518 c-7 -7 -12 -39 -12 -73 0 -34 5 -66 12 -73 7 -7 39 -12
73 -12 34 0 66 5 73 12 7 7 12 39 12 73 0 34 -5 66 -12 73 -7 7 -39 12 -73 12
-34 0 -66 -5 -73 -12z"/>
<path d="M1912 1308 c-7 -7 -12 -39 -12 -73 0 -34 5 -66 12 -73 16 -16 130
-16 146 0 7 7 12 39 12 73 0 34 -5 66 -12 73 -16 16 -130 16 -146 0z"/>
<path d="M2978 1306 c-21 -16 -26 -124 -6 -144 7 -7 39 -12 73 -12 34 0 66 5
73 12 7 7 12 39 12 73 0 34 -5 66 -12 73 -16 16 -119 15 -140 -2z"/>
<path d="M3192 1308 c-16 -16 -16 -130 0 -146 16 -16 130 -16 146 0 20 20 15
128 -5 144 -22 17 -125 18 -141 2z"/>
<path d="M4462 1308 c-16 -16 -16 -130 0 -146 16 -16 130 -16 146 0 7 7 12 39
12 73 0 34 -5 66 -12 73 -7 7 -39 12 -73 12 -34 0 -66 -5 -73 -12z"/>
<path d="M4892 1308 c-16 -16 -16 -130 0 -146 16 -16 130 -16 146 0 20 20 15
122 -6 141 -22 20 -122 23 -140 5z"/>
<path d="M5528 1309 c-14 -8 -18 -24 -18 -72 0 -36 5 -68 12 -75 7 -7 39 -12
73 -12 34 0 66 5 73 12 7 7 12 39 12 73 0 34 -5 66 -12 73 -15 15 -116 15
-140 1z"/>
<path d="M5952 1308 c-7 -7 -12 -39 -12 -73 0 -34 5 -66 12 -73 16 -16 130
-16 146 0 7 7 12 39 12 73 0 34 -5 66 -12 73 -7 7 -39 12 -73 12 -34 0 -66 -5
-73 -12z"/>
<path d="M6162 1308 c-7 -7 -12 -39 -12 -73 0 -34 5 -66 12 -73 16 -16 130
-16 146 0 7 7 12 39 12 73 0 34 -5 66 -12 73 -7 7 -39 12 -73 12 -34 0 -66 -5
-73 -12z"/>
<path d="M6372 1308 c-7 -7 -12 -39 -12 -73 0 -34 5 -66 12 -73 16 -16 130
-16 146 0 7 7 12 39 12 73 0 34 -5 66 -12 73 -7 7 -39 12 -73 12 -34 0 -66 -5
-73 -12z"/>
<path d="M6588 1303 c-17 -20 -14 -118 4 -140 14 -18 118 -16 142 2 16 12 18
23 13 70 -3 31 -11 63 -18 71 -18 21 -121 19 -141 -3z"/>
<path d="M7439 1303 c-16 -19 -14 -120 3 -140 13 -16 112 -17 139 -2 17 9 20
19 18 67 -3 77 -17 92 -89 92 -41 0 -61 -5 -71 -17z"/>
<path d="M7652 1308 c-7 -7 -12 -39 -12 -73 0 -34 5 -66 12 -73 16 -16 130
-16 146 0 7 7 12 39 12 73 0 34 -5 66 -12 73 -7 7 -39 12 -73 12 -34 0 -66 -5
-73 -12z"/>
<path d="M2341 1088 c-13 -21 -15 -117 -2 -137 13 -20 110 -24 138 -6 20 13
23 24 23 74 0 73 -12 84 -89 86 -47 1 -61 -2 -70 -17z"/>
<path d="M2976 1091 c-23 -25 -22 -123 2 -143 23 -21 129 -19 142 2 17 26 12
126 -6 141 -26 21 -119 22 -138 0z"/>
<path d="M4891 1088 c-13 -22 -14 -117 -1 -138 13 -21 119 -23 143 -2 23 20
24 123 2 142 -8 7 -42 13 -74 14 -47 2 -61 -1 -70 -16z"/>
<path d="M6377 1093 c-21 -24 -24 -125 -4 -141 7 -6 41 -12 75 -14 75 -3 82 3
82 83 0 69 -12 81 -83 87 -42 3 -55 0 -70 -15z"/>
<path d="M7023 1095 c-19 -13 -23 -26 -23 -71 0 -84 8 -92 85 -91 78 1 85 8
85 90 0 65 -12 78 -78 84 -33 3 -54 0 -69 -12z"/>
<path d="M7224 1089 c-8 -10 -14 -37 -14 -71 0 -70 15 -84 92 -87 48 -2 58 1
67 18 15 27 13 122 -2 142 -17 22 -122 21 -143 -2z"/>
<path d="M7438 1086 c-6 -12 -13 -43 -14 -69 -3 -69 12 -84 87 -81 33 1 65 6
71 12 6 6 12 36 14 67 3 72 -13 88 -91 90 -47 2 -58 -1 -67 -19z"/>
<path d="M7651 1088 c-13 -21 -14 -117 -2 -137 11 -17 125 -18 146 -1 21 17
21 123 0 140 -8 7 -41 13 -74 14 -47 1 -62 -3 -70 -16z"/>
<path d="M7862 1090 c-17 -28 -16 -125 3 -143 17 -17 135 -12 147 7 13 19 8
120 -6 139 -20 26 -127 24 -144 -3z"/>
<path d="M3192 1088 c-15 -15 -16 -112 -1 -140 9 -17 19 -19 67 -17 77 4 92
18 92 89 0 31 -5 61 -12 68 -7 7 -39 12 -73 12 -34 0 -66 -5 -73 -12z"/>
<path d="M5312 1088 c-14 -14 -16 -116 -3 -136 5 -9 32 -14 74 -15 52 -2 67 1
76 15 15 24 14 121 -1 136 -7 7 -39 12 -73 12 -34 0 -66 -5 -73 -12z"/>
<path d="M2120 871 c-15 -29 -12 -104 6 -129 13 -18 25 -22 73 -22 31 0 62 5
69 12 7 7 12 39 12 73 0 34 -5 66 -12 73 -7 7 -39 12 -75 12 -51 0 -64 -3 -73
-19z"/>
<path d="M2342 878 c-16 -16 -16 -130 0 -146 7 -7 39 -12 75 -12 51 0 64 3 73
19 14 27 13 124 -2 139 -7 7 -39 12 -73 12 -34 0 -66 -5 -73 -12z"/>
<path d="M2762 878 c-16 -16 -16 -130 0 -146 16 -16 130 -16 146 0 7 7 12 39
12 73 0 34 -5 66 -12 73 -7 7 -39 12 -73 12 -34 0 -66 -5 -73 -12z"/>
<path d="M3402 878 c-16 -16 -16 -130 0 -146 16 -16 130 -16 146 0 7 7 12 39
12 73 0 34 -5 66 -12 73 -7 7 -39 12 -73 12 -34 0 -66 -5 -73 -12z"/>
<path d="M3823 875 c-20 -22 -17 -125 5 -141 21 -17 124 -18 140 -2 7 7 12 39
12 73 0 34 -5 66 -12 73 -17 17 -130 15 -145 -3z"/>
<path d="M5742 878 c-7 -7 -12 -39 -12 -73 0 -34 5 -66 12 -73 17 -17 126 -15
144 2 17 18 19 127 2 144 -7 7 -39 12 -73 12 -34 0 -66 -5 -73 -12z"/>
<path d="M5952 878 c-7 -7 -12 -39 -12 -73 0 -34 5 -66 12 -73 16 -16 130 -16
146 0 7 7 12 39 12 73 0 34 -5 66 -12 73 -7 7 -39 12 -73 12 -34 0 -66 -5 -73
-12z"/>
<path d="M6162 878 c-7 -7 -12 -39 -12 -73 0 -34 5 -66 12 -73 16 -16 130 -16
146 0 7 7 12 39 12 73 0 34 -5 66 -12 73 -7 7 -39 12 -73 12 -34 0 -66 -5 -73
-12z"/>
<path d="M6372 878 c-17 -17 -15 -126 2 -144 18 -17 127 -19 144 -2 7 7 12 39
12 73 0 34 -5 66 -12 73 -7 7 -39 12 -73 12 -34 0 -66 -5 -73 -12z"/>
<path d="M6590 877 c-19 -15 -20 -118 -1 -141 19 -22 123 -22 142 0 19 23 18
126 -1 141 -8 7 -40 12 -70 12 -30 0 -62 -5 -70 -12z"/>
<path d="M7012 878 c-7 -7 -12 -39 -12 -73 0 -34 5 -66 12 -73 16 -16 130 -16
146 0 7 7 12 39 12 73 0 34 -5 66 -12 73 -7 7 -39 12 -73 12 -34 0 -66 -5 -73
-12z"/>
<path d="M7434 865 c-19 -29 -15 -104 6 -130 17 -20 123 -21 139 -1 7 8 13 42
14 76 3 73 -5 80 -87 80 -48 0 -58 -3 -72 -25z"/>
<path d="M7652 878 c-7 -7 -12 -39 -12 -73 0 -34 5 -66 12 -73 16 -16 130 -16
146 0 7 7 12 39 12 73 0 34 -5 66 -12 73 -7 7 -39 12 -73 12 -34 0 -66 -5 -73
-12z"/>
<path d="M7862 878 c-7 -7 -12 -39 -12 -73 0 -34 5 -66 12 -73 16 -16 130 -16
146 0 7 7 12 39 12 73 0 34 -5 66 -12 73 -7 7 -39 12 -73 12 -34 0 -66 -5 -73
-12z"/>
<path d="M1912 668 c-7 -7 -12 -39 -12 -73 0 -34 5 -66 12 -73 16 -16 130 -16
146 0 7 7 12 39 12 73 0 34 -5 66 -12 73 -7 7 -39 12 -73 12 -34 0 -66 -5 -73
-12z"/>
<path d="M2342 668 c-7 -7 -12 -39 -12 -73 0 -34 5 -66 12 -73 16 -16 130 -16
146 0 7 7 12 39 12 73 0 34 -5 66 -12 73 -7 7 -39 12 -73 12 -34 0 -66 -5 -73
-12z"/>
<path d="M2978 666 c-27 -20 -26 -131 1 -146 27 -14 124 -13 139 2 7 7 12 39
12 73 0 34 -5 66 -12 73 -16 16 -119 15 -140 -2z"/>
<path d="M3192 668 c-16 -16 -16 -130 0 -146 15 -15 112 -16 139 -2 16 9 19
22 19 73 0 36 -5 68 -12 75 -7 7 -39 12 -73 12 -34 0 -66 -5 -73 -12z"/>
<path d="M3612 668 c-16 -16 -16 -130 0 -146 16 -16 130 -16 146 0 7 7 12 39
12 73 0 34 -5 66 -12 73 -7 7 -39 12 -73 12 -34 0 -66 -5 -73 -12z"/>
<path d="M3823 665 c-20 -22 -17 -125 5 -141 21 -17 124 -18 140 -2 7 7 12 39
12 73 0 34 -5 66 -12 73 -17 17 -130 15 -145 -3z"/>
<path d="M4252 668 c-16 -16 -16 -130 0 -146 16 -16 130 -16 146 0 7 7 12 39
12 73 0 34 -5 66 -12 73 -7 7 -39 12 -73 12 -34 0 -66 -5 -73 -12z"/>
<path d="M4892 668 c-16 -16 -16 -130 0 -146 16 -16 130 -16 146 0 7 7 12 39
12 75 0 51 -3 64 -19 73 -27 14 -124 13 -139 -2z"/>
<path d="M5312 668 c-7 -7 -12 -39 -12 -73 0 -34 5 -66 12 -73 16 -16 130 -16
146 0 7 7 12 39 12 73 0 34 -5 66 -12 73 -7 7 -39 12 -73 12 -34 0 -66 -5 -73
-12z"/>
<path d="M5742 668 c-7 -7 -12 -39 -12 -73 0 -34 5 -66 12 -73 17 -17 126 -15
144 2 9 10 14 36 14 75 0 49 -3 62 -19 71 -27 14 -124 13 -139 -2z"/>
<path d="M5952 668 c-7 -7 -12 -39 -12 -73 0 -34 5 -66 12 -73 16 -16 130 -16
146 0 7 7 12 39 12 73 0 34 -5 66 -12 73 -7 7 -39 12 -73 12 -34 0 -66 -5 -73
-12z"/>
<path d="M6162 668 c-7 -7 -12 -39 -12 -73 0 -34 5 -66 12 -73 16 -16 130 -16
146 0 7 7 12 39 12 73 0 34 -5 66 -12 73 -7 7 -39 12 -73 12 -34 0 -66 -5 -73
-12z"/>
<path d="M6590 665 c-15 -19 -14 -123 1 -141 15 -18 123 -19 137 -1 5 6 12 35
15 64 8 75 -8 93 -82 93 -40 0 -63 -5 -71 -15z"/>
<path d="M6802 668 c-7 -7 -12 -39 -12 -73 0 -34 5 -66 12 -73 16 -16 130 -16
146 0 7 7 12 39 12 73 0 34 -5 66 -12 73 -7 7 -39 12 -73 12 -34 0 -66 -5 -73
-12z"/>
<path d="M7222 668 c-7 -7 -12 -39 -12 -73 0 -34 5 -66 12 -73 16 -16 130 -16
146 0 7 7 12 39 12 73 0 34 -5 66 -12 73 -7 7 -39 12 -73 12 -34 0 -66 -5 -73
-12z"/>
<path d="M7440 665 c-16 -19 -14 -123 2 -142 14 -17 122 -18 136 0 6 6 12 40
15 75 5 75 -3 82 -86 82 -37 0 -59 -5 -67 -15z"/>
<path d="M7862 668 c-7 -7 -12 -39 -12 -73 0 -34 5 -66 12 -73 16 -16 130 -16
146 0 7 7 12 39 12 73 0 34 -5 66 -12 73 -7 7 -39 12 -73 12 -34 0 -66 -5 -73
-12z"/>
</g>
</svg>
